<?xml version="1.0" encoding="utf-8"?>
<!-- Generator: Adobe Illustrator 17.0.0, SVG Export Plug-In . SVG Version: 6.00 Build 0)  -->
<!DOCTYPE svg PUBLIC "-//W3C//DTD SVG 1.1//EN" "http://www.w3.org/Graphics/SVG/1.1/DTD/svg11.dtd">
<svg version="1.1" id="Layer_1" xmlns="http://www.w3.org/2000/svg" xmlns:xlink="http://www.w3.org/1999/xlink" x="0px" y="0px"
	 width="640px" height="960px" viewBox="0 0 640 960" enable-background="new 0 0 640 960" xml:space="preserve">
<linearGradient id="SVGID_1_" gradientUnits="userSpaceOnUse" x1="-120.1209" y1="642.1069" x2="768.668" y2="318.6142">
	<stop  offset="0" style="stop-color:#FBAE17"/>
	<stop  offset="0.3744" style="stop-color:#FBB41A"/>
	<stop  offset="0.7833" style="stop-color:#FFE631"/>
	<stop  offset="1" style="stop-color:#FFFF00"/>
</linearGradient>
<polyline fill="url(#SVGID_1_)" stroke="#000000" stroke-miterlimit="10" points="652.964,960 -4.417,960 -4.417,0.721 
	652.964,0.721 "/>
<path fill="#333333" d="M190.856,574.203H141.87V558.56h3.987v-34.059h-4.061v-15.644h49.06v20.905h-13.474v-5.262h-11.665v10.053
	h10.152v13.295h-10.152v10.711h11.665v-5.262h13.474V574.203z"/>
<path fill="#333333" d="M210.126,574.203h-11.554v-20.952h11.554c1.377,5.7,3.974,8.55,7.789,8.55c2.756,0,4.134-1.409,4.134-4.228
	c0-1.471-0.48-2.693-1.44-3.664c-1.034-1.064-3.212-2.537-6.534-4.416c-4.184-2.411-7.261-4.494-9.229-6.248
	c-1.846-1.597-3.421-3.805-4.725-6.624c-1.305-2.786-1.956-5.872-1.956-9.255c0-6.075,1.55-10.82,4.651-14.234
	c3.076-3.413,6.866-5.121,11.37-5.121c4.504,0,8.317,1.629,11.444,4.886v-4.04h11.628v18.603h-11.481
	c-1.403-5.135-3.889-7.704-7.457-7.704c-2.51,0-3.765,1.362-3.765,4.087c0,1.315,0.356,2.302,1.071,2.96
	c0.689,0.69,2.916,2.208,6.682,4.557c5.045,3.195,8.417,5.529,10.115,7c0.861,0.721,1.74,1.731,2.639,3.031
	c0.899,1.299,1.643,2.639,2.234,4.016c1.353,3.07,2.03,6.389,2.03,9.959c0,5.482-1.6,10.116-4.799,13.906
	c-3.2,3.852-7.235,5.778-12.108,5.778c-4.529,0-8.626-1.706-12.293-5.121V574.203z"/>
<path fill="#333333" d="M285.21,574.203H256.38V558.56h4.43v-34.059h-5.906v11.885h-9.635v-27.529h50.906v27.529h-9.635v-11.885
	h-5.869v34.059h4.541V574.203z"/>
<path fill="#333333" d="M360.185,574.203h-30.713V559.17h7.309v-29.549c-1.329,0.439-3.15,0.658-5.463,0.658
	c-0.738,0-1.354-0.047-1.846-0.141v-14.469c0.295,0.032,0.602,0.047,0.923,0.047c3.223,0,6.213-0.799,8.97-2.396
	c2.806-1.628,4.811-3.554,6.017-5.778h7.715v51.629h7.088V574.203z"/>
<path fill="#333333" d="M382.998,539.815c-2.215-1.001-4.086-2.662-5.611-4.98c-1.55-2.349-2.326-5.198-2.326-8.55
	c0-5.574,1.809-10.1,5.427-13.577c3.642-3.444,8.724-5.168,15.246-5.168c6.792,0,12.009,1.691,15.652,5.074
	c3.666,3.382,5.5,7.767,5.5,13.154c0,6.577-2.621,11.26-7.863,14.046c2.682,0.846,4.921,2.6,6.719,5.262
	c1.772,2.663,2.658,6.013,2.658,10.053c0,5.982-1.834,10.758-5.5,14.328c-3.643,3.57-9.352,5.356-17.129,5.356
	c-7.58,0-13.154-1.847-16.722-5.543c-3.593-3.664-5.39-8.299-5.39-13.906C373.659,547.943,376.771,542.76,382.998,539.815z
	 M389.163,554.05c0,2.663,0.652,4.73,1.957,6.201c1.304,1.472,2.977,2.208,5.02,2.208c2.116,0,3.777-0.766,4.984-2.302
	c1.181-1.565,1.772-3.632,1.772-6.201c0-2.568-0.591-4.604-1.772-6.107c-1.207-1.503-2.842-2.255-4.91-2.255
	c-2.215,0-3.938,0.846-5.168,2.537C389.79,549.822,389.163,551.795,389.163,554.05z M390.012,527.037
	c0,2.036,0.517,3.711,1.55,5.027c0.984,1.348,2.498,2.02,4.541,2.02c1.624,0,3.002-0.578,4.134-1.738
	c1.132-1.128,1.698-2.927,1.698-5.403c0-2.129-0.517-3.867-1.55-5.215c-1.059-1.315-2.473-1.973-4.245-1.973
	s-3.224,0.674-4.356,2.02C390.603,523.124,390.012,524.876,390.012,527.037z"/>
<path fill="#333333" d="M435.011,539.815c-2.215-1.001-4.086-2.662-5.611-4.98c-1.55-2.349-2.326-5.198-2.326-8.55
	c0-5.574,1.809-10.1,5.427-13.577c3.642-3.444,8.724-5.168,15.246-5.168c6.792,0,12.009,1.691,15.652,5.074
	c3.666,3.382,5.5,7.767,5.5,13.154c0,6.577-2.621,11.26-7.863,14.046c2.682,0.846,4.921,2.6,6.719,5.262
	c1.772,2.663,2.658,6.013,2.658,10.053c0,5.982-1.834,10.758-5.5,14.328c-3.643,3.57-9.352,5.356-17.129,5.356
	c-7.58,0-13.154-1.847-16.722-5.543c-3.593-3.664-5.39-8.299-5.39-13.906C425.672,547.943,428.784,542.76,435.011,539.815z
	 M441.176,554.05c0,2.663,0.652,4.73,1.956,6.201c1.304,1.472,2.977,2.208,5.02,2.208c2.116,0,3.777-0.766,4.984-2.302
	c1.181-1.565,1.772-3.632,1.772-6.201c0-2.568-0.591-4.604-1.772-6.107c-1.207-1.503-2.842-2.255-4.91-2.255
	c-2.215,0-3.938,0.846-5.168,2.537C441.804,549.822,441.176,551.795,441.176,554.05z M442.025,527.037
	c0,2.036,0.517,3.711,1.55,5.027c0.984,1.348,2.498,2.02,4.541,2.02c1.624,0,3.002-0.578,4.134-1.738
	c1.132-1.128,1.698-2.927,1.698-5.403c0-2.129-0.517-3.867-1.55-5.215c-1.059-1.315-2.473-1.973-4.245-1.973
	s-3.224,0.674-4.356,2.02C442.616,523.124,442.025,524.876,442.025,527.037z"/>
<path fill="#333333" d="M477.057,556.634l13.363-1.08c1.181,3.57,3.457,5.355,6.829,5.355c1.993,0,3.679-0.689,5.057-2.067
	c1.329-1.377,1.993-3.538,1.993-6.483c0-2.88-0.664-4.994-1.993-6.342c-1.354-1.315-2.929-1.973-4.725-1.973
	c-2.757,0-5.07,1.284-6.94,3.852l-11.185-5.027l1.55-34.012h37.838v17.1h-8.675l-1.218-3.993h-18.347l-0.443,12.966
	c3.297-2.631,7.223-3.946,11.776-3.946c5.561,0,10.163,1.895,13.806,5.684c3.642,3.79,5.463,8.989,5.463,15.597
	c0,6.452-1.92,11.824-5.759,16.114c-3.864,4.291-9.241,6.436-16.132,6.436c-6.054,0-11.063-1.628-15.024-4.886
	C480.354,566.703,477.943,562.271,477.057,556.634z"/>
<polyline fill="#333333" points="-27.035,633.677 62.71,633.677 62.71,682.21 45.724,682.21 45.724,661.257 35.377,661.257 
	35.377,721.3 43.381,721.3 43.381,748.88 -7.447,748.88 -7.447,721.3 0.363,721.3 0.363,661.257 -10.05,661.257 -10.05,682.21 
	-27.035,682.21 "/>
<path fill="#333333" d="M134.632,737.488h-69.28v-22.125h5.638v-48.169h-5.744v-22.125h69.385v29.567h-19.057v-7.441H99.078v14.218
	h14.358v18.802H99.078v15.148h16.498v-7.441h19.057V737.488z"/>
<path fill="#333333" d="M173.997,737.488h-29.811v-22.125h6.37v-48.169h-6.37v-22.125h34.406l26.417,48.303v-26.177h-5.9v-22.125
	h29.289v22.125h-6.318v71.49h-23.91l-30.595-55.877v32.556h6.422V737.488z"/>
<path fill="#333333" d="M265.309,737.488h-29.811v-22.125h6.37v-48.169h-6.37v-22.125h34.406l26.417,48.303v-26.177h-5.9v-22.125
	h29.289v22.125h-6.318v71.49h-23.91l-30.595-55.877v32.556h6.422V737.488z"/>
<path fill="#333333" d="M397.449,737.488h-69.28v-22.125h5.638v-48.169h-5.744v-22.125h69.385v29.567h-19.057v-7.441h-16.498v14.218
	h14.358v18.802h-14.358v15.148h16.498v-7.441h19.057V737.488z"/>
<path fill="#333333" d="M436.814,737.488h-29.811v-22.125h6.37v-48.169h-6.37v-22.125h34.406l26.417,48.303v-26.177h-5.9v-22.125
	h29.289v22.125h-6.318v71.49h-23.91l-30.595-55.877v32.556h6.422V737.488z"/>
<path fill="#333333" d="M555.379,737.488h-40.775v-22.125h6.265v-48.169h-8.353v16.809H498.89v-38.934h71.996v38.934h-13.627
	v-16.809h-8.301v48.169h6.421V737.488z"/>
<path fill="#333333" d="M583.154,681.717v-13.022c2.784,0,4.908-0.531,6.369-1.595c1.462-1.106,2.367-2.369,2.715-3.786
	c0.383-1.462,0.592-4.274,0.627-8.439h-9.711v-24.184h26.051v20.664c0,7.397-0.209,12.469-0.627,15.214
	c-0.418,2.791-1.636,5.494-3.654,8.106c-1.985,2.658-4.438,4.497-7.362,5.515C594.64,681.208,589.837,681.717,583.154,681.717z"/>
<path fill="#333333" d="M644.133,702.541c-5.918-3.411-10.269-6.355-13.053-8.837c-2.609-2.259-4.838-5.381-6.683-9.367
	c-1.845-3.942-2.767-8.306-2.767-13.089c0-8.592,2.193-15.303,6.578-20.131c4.351-4.828,9.711-7.243,16.08-7.243"/>
<path fill="#333333" d="M638.546,737.488h-16.341v-29.632h16.341"/>
<path fill="#999999" d="M30.731,808.091H20.26v-5.848h1.609v-12.732h-2.145v4.443h-3.499v-10.291h18.488v10.291h-3.499v-4.443
	h-2.132v12.732h1.649V808.091z"/>
<path fill="#999999" d="M54.81,808.091H37.019v-5.848h1.448v-12.732h-1.475v-5.848H54.81v7.815h-4.894v-1.967H45.68v3.758h3.687
	v4.97H45.68v4.004h4.237v-1.967h4.894V808.091z"/>
<path fill="#999999" d="M64.919,808.091h-7.655v-5.848h1.636v-12.732h-1.636v-5.848h8.835l6.784,12.767v-6.919h-1.515v-5.848h7.521
	v5.848h-1.622v18.896h-6.14l-7.856-14.769v8.605h1.649V808.091z"/>
<path fill="#999999" d="M88.367,808.091h-7.655v-5.848h1.636v-12.732h-1.636v-5.848h8.835l6.784,12.767v-6.919h-1.515v-5.848h7.521
	v5.848h-1.622v18.896h-6.14l-7.856-14.769v8.605h1.649V808.091z"/>
<path fill="#999999" d="M122.3,808.091h-17.791v-5.848h1.448v-12.732h-1.475v-5.848H122.3v7.815h-4.894v-1.967h-4.237v3.758h3.687
	v4.97h-3.687v4.004h4.237v-1.967h4.894V808.091z"/>
<path fill="#999999" d="M132.409,808.091h-7.655v-5.848h1.636v-12.732h-1.636v-5.848h8.835l6.784,12.767v-6.919h-1.515v-5.848h7.521
	v5.848h-1.622v18.896h-6.14l-7.856-14.769v8.605h1.649V808.091z"/>
<path fill="#999999" d="M162.856,808.091h-10.471v-5.848h1.609v-12.732h-2.145v4.443h-3.499v-10.291h18.488v10.291h-3.499v-4.443
	h-2.132v12.732h1.649V808.091z"/>
<path fill="#999999" d="M173.34,808.091h-4.196v-7.832h4.196c0.501,2.131,1.443,3.196,2.829,3.196c1.001,0,1.502-0.527,1.502-1.581
	c0-0.55-0.174-1.007-0.523-1.37c-0.375-0.398-1.166-0.948-2.373-1.651c-1.519-0.901-2.637-1.68-3.352-2.336
	c-0.67-0.597-1.242-1.422-1.716-2.476c-0.474-1.042-0.711-2.195-0.711-3.46c0-2.271,0.563-4.045,1.689-5.321
	c1.117-1.276,2.494-1.914,4.129-1.914s3.021,0.609,4.156,1.826v-1.51h4.223v6.954h-4.17c-0.509-1.92-1.412-2.88-2.708-2.88
	c-0.912,0-1.368,0.509-1.368,1.528c0,0.492,0.13,0.86,0.389,1.106c0.25,0.258,1.059,0.825,2.427,1.703
	c1.832,1.194,3.057,2.066,3.673,2.617c0.313,0.269,0.632,0.646,0.958,1.132s0.597,0.987,0.812,1.502
	c0.492,1.147,0.737,2.388,0.737,3.723c0,2.049-0.581,3.781-1.743,5.198c-1.162,1.44-2.628,2.16-4.397,2.16
	c-1.645,0-3.133-0.638-4.464-1.914V808.091z"/>
<path fill="#999999" d="M210.651,808.091h-17.751v-5.848h1.676v-12.732h-1.676v-5.848h10.658v5.848h-1.77v12.732h4.411v-3.916h4.451
	V808.091z"/>
<path fill="#999999" d="M218.789,808.091h-7.387v-5.848h1.421l3.499-12.732h-1.502v-5.848h13.407v5.848h-1.502l3.566,12.732h1.368
	v5.848h-9.733v-5.356h1.636l-0.711-3.073h-4.773l-0.818,3.073h1.528V808.091z M220.546,789.863l-1.756,6.761h3.338L220.546,789.863z
	"/>
<path fill="#999999" d="M246.743,799.68h-1.904v-4.636h8.339c0,2.669-0.143,4.654-0.429,5.953c-0.277,1.253-0.858,2.523-1.743,3.811
	c-0.867,1.276-1.917,2.207-3.151,2.792c-1.233,0.585-2.556,0.878-3.968,0.878c-2.1,0-4.009-0.457-5.725-1.37
	c-1.725-0.89-3.057-2.365-3.995-4.425c-0.947-2.025-1.421-4.297-1.421-6.814c0-3.805,0.956-6.872,2.869-9.202
	c1.895-2.33,4.219-3.495,6.972-3.495c2.297,0,4.098,0.732,5.403,2.195v-1.703h4.491v8.535h-4.491
	c-0.393-1.054-0.905-1.85-1.535-2.388c-0.631-0.539-1.366-0.808-2.206-0.808c-1.18,0-2.047,0.503-2.601,1.51
	c-0.545,1.007-0.818,2.857-0.818,5.549c0,2.681,0.286,4.501,0.858,5.461c0.581,0.972,1.426,1.458,2.534,1.458
	C245.903,802.981,246.743,801.881,246.743,799.68z"/>
<path fill="#999999" d="M273.624,808.091h-17.791v-5.848h1.448v-12.732h-1.475v-5.848h17.818v7.815h-4.894v-1.967h-4.237v3.758
	h3.687v4.97h-3.687v4.004h4.237v-1.967h4.894V808.091z"/>
<path fill="#999999" d="M286.521,808.091h-10.136v-5.848h1.515v-12.732h-1.515v-5.848h10.136c0.912,0,1.756,0.02,2.534,0.061
	c0.778,0.041,1.443,0.099,1.998,0.176c0.554,0.076,1.064,0.179,1.528,0.308c1.305,0.363,2.364,1.153,3.177,2.371
	c0.822,1.241,1.233,2.704,1.233,4.39c0,1.264-0.25,2.412-0.751,3.442c-0.501,1.019-1.157,1.768-1.971,2.248l2.574,5.584h1.341v5.848
	h-6.717l-4.062-9.975h-2.293v4.127h1.408V808.091z M285.113,789.02v4.654h0.804c1.055,0,1.77-0.041,2.145-0.123
	c0.402-0.082,0.742-0.316,1.019-0.702c0.277-0.363,0.416-0.86,0.416-1.493s-0.139-1.136-0.416-1.51
	c-0.277-0.386-0.63-0.62-1.059-0.702c-0.411-0.082-1.162-0.123-2.252-0.123H285.113z"/>
<path fill="#999999" d="M317.089,808.091h-10.632v-5.848h1.716v-12.732h-1.716v-5.848h10.632v5.848h-1.703v12.732h1.703V808.091z"/>
<path fill="#999999" d="M323.511,808.091h-4.196v-7.832h4.196c0.501,2.131,1.443,3.196,2.829,3.196c1.001,0,1.502-0.527,1.502-1.581
	c0-0.55-0.174-1.007-0.523-1.37c-0.375-0.398-1.166-0.948-2.373-1.651c-1.519-0.901-2.637-1.68-3.352-2.336
	c-0.67-0.597-1.242-1.422-1.716-2.476c-0.474-1.042-0.711-2.195-0.711-3.46c0-2.271,0.563-4.045,1.689-5.321
	c1.117-1.276,2.494-1.914,4.129-1.914c1.636,0,3.021,0.609,4.156,1.826v-1.51h4.223v6.954h-4.17c-0.509-1.92-1.412-2.88-2.708-2.88
	c-0.912,0-1.367,0.509-1.367,1.528c0,0.492,0.13,0.86,0.389,1.106c0.25,0.258,1.059,0.825,2.427,1.703
	c1.832,1.194,3.057,2.066,3.673,2.617c0.313,0.269,0.632,0.646,0.958,1.132s0.597,0.987,0.812,1.502
	c0.492,1.147,0.737,2.388,0.737,3.723c0,2.049-0.581,3.781-1.743,5.198c-1.162,1.44-2.628,2.16-4.397,2.16
	c-1.645,0-3.133-0.638-4.464-1.914V808.091z"/>
<path fill="#999999" d="M350.512,808.091h-7.226v-5.848h1.435v-12.732h-1.475v-5.848h11.248l2.748,9.43l2.815-9.43h11.181v5.848
	h-1.461v12.732h1.502v5.848h-9.733v-5.848h1.488v-13.645l-5.631,19.493h-2.789l-5.577-19.317v13.469h1.475V808.091z"/>
<path fill="#999999" d="M380.101,808.091h-7.387v-5.848h1.421l3.499-12.732h-1.502v-5.848h13.407v5.848h-1.502l3.566,12.732h1.367
	v5.848h-9.733v-5.356h1.636l-0.711-3.073h-4.773l-0.818,3.073h1.528V808.091z M381.857,789.863l-1.756,6.761h3.338L381.857,789.863z
	"/>
<path fill="#999999" d="M403.348,808.091h-8.674v-5.848h1.461v-12.732h-1.461v-5.848h8.929c2.038,0,3.7,0.164,4.987,0.492
	c1.296,0.328,2.516,1.001,3.66,2.02c1.135,1.03,2.029,2.423,2.681,4.18c0.322,0.843,0.568,1.744,0.737,2.704
	c0.17,0.96,0.255,1.967,0.255,3.02c0,2.119-0.344,4.051-1.032,5.795c-0.679,1.733-1.542,3.061-2.588,3.986
	c-1.019,0.925-2.136,1.528-3.352,1.809C407.746,807.951,405.878,808.091,403.348,808.091z M403.348,789.512v12.732h0.684
	c1.698,0,2.802-0.591,3.311-1.774c0.501-1.182,0.751-2.669,0.751-4.461c0-1.077-0.107-2.142-0.322-3.196
	c-0.223-1.054-0.617-1.867-1.18-2.441c-0.554-0.574-1.546-0.86-2.976-0.86H403.348z"/>
<path fill="#999999" d="M436.329,808.091h-17.791v-5.848h1.448v-12.732h-1.475v-5.848h17.818v7.815h-4.894v-1.967h-4.237v3.758
	h3.687v4.97h-3.687v4.004h4.237v-1.967h4.894V808.091z"/>
<path fill="#999999" d="M455.193,808.302h-5.872l-5.255-18.79h-1.287v-5.848h9.666v5.848h-1.394l2.199,10.519l2.789-10.519h-1.381
	v-5.848h8.125v5.848H461.4l2.829,10.519l2.226-10.519h-1.341v-5.848h7.521v5.848h-1.287l-5.309,18.79h-5.792l-2.52-9.413
	L455.193,808.302z"/>
<path fill="#999999" d="M484.46,808.091h-10.632v-5.848h1.716v-12.732h-1.716v-5.848h10.632v5.848h-1.703v12.732h1.703V808.091z"/>
<path fill="#999999" d="M500.991,808.091H490.52v-5.848h1.609v-12.732h-2.145v4.443h-3.499v-10.291h18.488v10.291h-3.499v-4.443
	h-2.132v12.732h1.649V808.091z"/>
<path fill="#999999" d="M517.079,808.091h-9.814v-5.848h1.408v-12.732h-1.435v-5.848h9.841v5.848h-1.193v3.723h4.317v-3.723h-1.207
	v-5.848h9.827v5.848h-1.408v12.732h1.408v5.848h-9.827v-5.848h1.207v-4.004h-4.317v4.004h1.193V808.091z"/>
<path fill="#999999" d="M549.028,808.091h-10.9v-5.848h1.81v-12.732h-1.81v-5.848h11.436c2.628,0,4.549,0.334,5.765,1.001
	c1.216,0.679,2.109,1.604,2.681,2.775s0.858,2.453,0.858,3.846c0,1.721-0.34,3.149-1.019,4.285
	c-0.679,1.147-1.578,1.979-2.695,2.494c-1.099,0.503-2.798,0.755-5.095,0.755h-2.909v3.424h1.877V808.091z M547.151,789.02v4.583
	h1.408c0.983,0,1.698-0.152,2.145-0.457c0.429-0.304,0.644-0.896,0.644-1.774c0-0.574-0.116-1.06-0.349-1.458
	c-0.223-0.386-0.523-0.632-0.898-0.738c-0.358-0.105-0.965-0.158-1.823-0.158H547.151z"/>
<path fill="#999999" d="M570.867,808.091h-10.136v-5.848h1.515v-12.732h-1.515v-5.848h10.136c0.912,0,1.756,0.02,2.534,0.061
	c0.778,0.041,1.443,0.099,1.998,0.176s1.064,0.179,1.528,0.308c1.305,0.363,2.364,1.153,3.177,2.371
	c0.822,1.241,1.233,2.704,1.233,4.39c0,1.264-0.25,2.412-0.751,3.442c-0.5,1.019-1.157,1.768-1.971,2.248l2.574,5.584h1.341v5.848
	h-6.717l-4.062-9.975h-2.293v4.127h1.408V808.091z M569.46,789.02v4.654h0.804c1.055,0,1.77-0.041,2.145-0.123
	c0.402-0.082,0.742-0.316,1.019-0.702c0.277-0.363,0.416-0.86,0.416-1.493s-0.138-1.136-0.416-1.51
	c-0.277-0.386-0.63-0.62-1.059-0.702c-0.411-0.082-1.162-0.123-2.252-0.123H569.46z"/>
<path fill="#999999" d="M594.571,808.091h-10.632v-5.848h1.716v-12.732h-1.716v-5.848h10.632v5.848h-1.703v12.732h1.703V808.091z"/>
<path fill="#999999" d="M605.631,808.091h-8.674v-5.848h1.461v-12.732h-1.461v-5.848h8.929c2.038,0,3.7,0.164,4.987,0.492
	c1.296,0.328,2.516,1.001,3.66,2.02c1.135,1.03,2.029,2.423,2.681,4.18c0.322,0.843,0.568,1.744,0.737,2.704
	c0.17,0.96,0.255,1.967,0.255,3.02c0,2.119-0.344,4.051-1.032,5.795c-0.679,1.733-1.542,3.061-2.588,3.986
	c-1.019,0.925-2.136,1.528-3.352,1.809C610.029,807.951,608.161,808.091,605.631,808.091z M605.631,789.512v12.732h0.684
	c1.698,0,2.802-0.591,3.311-1.774c0.501-1.182,0.751-2.669,0.751-4.461c0-1.077-0.107-2.142-0.322-3.196
	c-0.223-1.054-0.617-1.867-1.18-2.441c-0.554-0.574-1.546-0.86-2.976-0.86H605.631z"/>
<polyline fill="#999999" points="638.612,791.479 633.719,791.479 633.719,789.512 629.482,789.512 629.482,793.27 633.169,793.27 
	633.169,798.24 629.482,798.24 629.482,802.244 633.719,802.244 633.719,800.277 638.612,800.277 "/>
<polyline fill="#999999" points="638.612,808.091 620.821,808.091 620.821,802.244 622.269,802.244 622.269,789.512 
	620.795,789.512 620.795,783.664 638.612,783.664 "/>
<path fill="#999999" d="M15.629,851.249H4.997v-5.848h1.716V832.67H4.997v-5.848h10.632v5.848h-1.703v12.732h1.703V851.249z"/>
<path fill="#999999" d="M25.161,851.249h-7.655v-5.848h1.636V832.67h-1.636v-5.848h8.835l6.784,12.767v-6.919H31.61v-5.848h7.521
	v5.848h-1.622v18.896h-6.14l-7.856-14.769v8.605h1.649V851.249z"/>
<path fill="#999999" d="M60.408,851.249H49.937v-5.848h1.609V832.67h-2.145v4.443h-3.499v-10.291H64.39v10.291H60.89v-4.443h-2.132
	v12.732h1.649V851.249z"/>
<path fill="#999999" d="M76.496,851.249h-9.814v-5.848h1.408V832.67h-1.435v-5.848h9.841v5.848h-1.193v3.723h4.317v-3.723h-1.207
	v-5.848h9.827v5.848h-1.408v12.732h1.408v5.848h-9.827v-5.848h1.207v-4.004h-4.317v4.004h1.193V851.249z"/>
<path fill="#999999" d="M108.512,851.249H90.721v-5.848h1.448V832.67h-1.475v-5.848h17.818v7.815h-4.894v-1.967h-4.237v3.758h3.687
	v4.97h-3.687v4.004h4.237v-1.967h4.894V851.249z"/>
<path fill="#999999" d="M127.978,851.249h-9.814v-5.848h1.408V832.67h-1.435v-5.848h9.841v5.848h-1.193v3.723h4.317v-3.723h-1.207
	v-5.848h9.827v5.848h-1.408v12.732h1.408v5.848h-9.827v-5.848h1.207v-4.004h-4.317v4.004h1.193V851.249z"/>
<path fill="#999999" d="M159.994,851.249h-17.791v-5.848h1.448V832.67h-1.475v-5.848h17.818v7.815h-4.894v-1.967h-4.237v3.758h3.687
	v4.97h-3.687v4.004h4.237v-1.967h4.894V851.249z"/>
<path fill="#999999" d="M169.245,851.249h-7.387v-5.848h1.421l3.499-12.732h-1.502v-5.848h13.407v5.848h-1.502l3.566,12.732h1.367
	v5.848h-9.733v-5.356h1.636l-0.711-3.073h-4.773l-0.818,3.073h1.528V851.249z M171.001,833.021l-1.756,6.761h3.338L171.001,833.021z
	"/>
<path fill="#999999" d="M193.753,851.249h-10.136v-5.848h1.515V832.67h-1.515v-5.848h10.136c0.912,0,1.756,0.02,2.534,0.061
	c0.778,0.041,1.443,0.099,1.998,0.176c0.554,0.076,1.064,0.179,1.528,0.308c1.305,0.363,2.364,1.153,3.177,2.371
	c0.822,1.241,1.233,2.704,1.233,4.39c0,1.264-0.25,2.412-0.751,3.442c-0.501,1.019-1.157,1.768-1.971,2.248l2.574,5.584h1.341v5.848
	H198.7l-4.062-9.975h-2.293v4.127h1.408V851.249z M192.345,832.178v4.654h0.804c1.055,0,1.77-0.041,2.145-0.123
	c0.402-0.082,0.742-0.316,1.019-0.702c0.277-0.363,0.416-0.86,0.416-1.493s-0.139-1.136-0.416-1.51
	c-0.277-0.386-0.63-0.62-1.059-0.702c-0.411-0.082-1.162-0.123-2.252-0.123H192.345z"/>
<path fill="#999999" d="M220.727,851.249h-10.471v-5.848h1.609V832.67h-2.145v4.443h-3.499v-10.291h18.488v10.291h-3.499v-4.443
	h-2.132v12.732h1.649V851.249z"/>
<path fill="#999999" d="M234,838.974c0-2.037,0.38-4.01,1.14-5.918c0.751-1.897,1.917-3.495,3.499-4.794
	c0.563-0.457,1.141-0.82,1.736-1.089c0.594-0.269,1.241-0.478,1.938-0.624c0.697-0.146,1.43-0.219,2.199-0.219
	c3.343,0,5.93,1.282,7.763,3.846c0.912,1.264,1.6,2.634,2.065,4.109c0.465,1.475,0.697,3.038,0.697,4.689
	c0,3.407-0.947,6.369-2.842,8.886c-1.895,2.517-4.456,3.776-7.682,3.776c-3.119,0-5.649-1.182-7.588-3.547
	C234.974,845.735,234,842.697,234,838.974z M242.098,838.974c0,2.716,0.201,4.548,0.603,5.497c0.384,0.96,0.988,1.44,1.81,1.44
	c0.813,0,1.421-0.462,1.823-1.387c0.402-0.937,0.603-2.786,0.603-5.549c0-2.681-0.197-4.507-0.59-5.479
	c-0.384-0.96-0.997-1.44-1.837-1.44c-0.804,0-1.408,0.462-1.81,1.387S242.098,836.211,242.098,838.974z"/>
<path fill="#999999" d="M268.442,851.249h-11.329v-5.848h1.957V832.67h-2.024v-5.848h18.367v8.043h-4.961v-2.195h-4.17v3.758h3.218
	v4.97h-3.218v4.004h2.159V851.249z"/>
<path fill="#999999" d="M298.031,842.838h-1.904v-4.636h8.339c0,2.669-0.143,4.654-0.429,5.953
	c-0.277,1.253-0.858,2.523-1.743,3.811c-0.867,1.276-1.917,2.207-3.151,2.792c-1.233,0.585-2.556,0.878-3.968,0.878
	c-2.1,0-4.009-0.457-5.725-1.37c-1.725-0.89-3.057-2.365-3.995-4.425c-0.947-2.025-1.421-4.297-1.421-6.814
	c0-3.805,0.956-6.872,2.869-9.202c1.895-2.33,4.219-3.495,6.972-3.495c2.297,0,4.098,0.732,5.403,2.195v-1.703h4.491v8.535h-4.491
	c-0.393-1.054-0.905-1.85-1.535-2.388c-0.631-0.539-1.366-0.808-2.206-0.808c-1.18,0-2.047,0.503-2.601,1.51
	c-0.545,1.007-0.818,2.857-0.818,5.549c0,2.681,0.286,4.501,0.858,5.461c0.581,0.972,1.426,1.458,2.534,1.458
	C297.191,846.139,298.031,845.039,298.031,842.838z"/>
<path fill="#999999" d="M324.604,851.249h-17.751v-5.848h1.676V832.67h-1.676v-5.848h10.658v5.848h-1.77v12.732h4.411v-3.916h4.451
	V851.249z"/>
<path fill="#999999" d="M332.742,851.249h-7.387v-5.848h1.421l3.499-12.732h-1.502v-5.848h13.407v5.848h-1.502l3.566,12.732h1.367
	v5.848h-9.733v-5.356h1.636l-0.711-3.073h-4.773l-0.818,3.073h1.528V851.249z M334.498,833.021l-1.756,6.761h3.338L334.498,833.021z
	"/>
<path fill="#999999" d="M351.35,851.249h-4.196v-7.832h4.196c0.501,2.131,1.443,3.196,2.829,3.196c1.001,0,1.502-0.527,1.502-1.58
	c0-0.55-0.174-1.007-0.523-1.37c-0.375-0.398-1.166-0.948-2.373-1.651c-1.519-0.901-2.637-1.68-3.352-2.336
	c-0.67-0.597-1.242-1.422-1.716-2.476c-0.474-1.042-0.711-2.195-0.711-3.459c0-2.271,0.563-4.045,1.689-5.321
	c1.117-1.276,2.494-1.914,4.129-1.914c1.636,0,3.021,0.609,4.156,1.826v-1.51h4.223v6.954h-4.17c-0.509-1.92-1.412-2.88-2.708-2.88
	c-0.912,0-1.367,0.509-1.367,1.528c0,0.492,0.13,0.86,0.389,1.106c0.25,0.258,1.059,0.825,2.427,1.703
	c1.832,1.194,3.057,2.066,3.673,2.617c0.313,0.269,0.632,0.646,0.958,1.132c0.326,0.486,0.597,0.987,0.812,1.502
	c0.492,1.147,0.737,2.388,0.737,3.723c0,2.049-0.581,3.781-1.743,5.198c-1.162,1.44-2.628,2.16-4.397,2.16
	c-1.645,0-3.133-0.638-4.464-1.914V851.249z"/>
<path fill="#999999" d="M378.405,842.838h-1.904v-4.636h8.339c0,2.669-0.143,4.654-0.429,5.953
	c-0.277,1.253-0.858,2.523-1.743,3.811c-0.867,1.276-1.917,2.207-3.151,2.792c-1.233,0.585-2.556,0.878-3.968,0.878
	c-2.1,0-4.009-0.457-5.725-1.37c-1.725-0.89-3.057-2.365-3.995-4.425c-0.947-2.025-1.421-4.297-1.421-6.814
	c0-3.805,0.956-6.872,2.869-9.202c1.895-2.33,4.219-3.495,6.972-3.495c2.297,0,4.098,0.732,5.403,2.195v-1.703h4.491v8.535h-4.491
	c-0.393-1.054-0.905-1.85-1.535-2.388c-0.631-0.539-1.366-0.808-2.206-0.808c-1.18,0-2.047,0.503-2.601,1.51
	c-0.545,1.007-0.818,2.857-0.818,5.549c0,2.681,0.286,4.501,0.858,5.461c0.581,0.972,1.426,1.458,2.534,1.458
	C377.565,846.139,378.405,845.039,378.405,842.838z"/>
<path fill="#999999" d="M387.616,838.974c0-2.037,0.38-4.01,1.14-5.918c0.751-1.897,1.917-3.495,3.499-4.794
	c0.563-0.457,1.141-0.82,1.736-1.089c0.594-0.269,1.241-0.478,1.938-0.624c0.697-0.146,1.43-0.219,2.199-0.219
	c3.343,0,5.93,1.282,7.763,3.846c0.912,1.264,1.6,2.634,2.065,4.109c0.465,1.475,0.697,3.038,0.697,4.689
	c0,3.407-0.947,6.369-2.842,8.886c-1.895,2.517-4.456,3.776-7.682,3.776c-3.119,0-5.649-1.182-7.588-3.547
	C388.59,845.735,387.616,842.697,387.616,838.974z M395.714,838.974c0,2.716,0.201,4.548,0.603,5.497
	c0.384,0.96,0.988,1.44,1.81,1.44c0.813,0,1.421-0.462,1.823-1.387c0.402-0.937,0.603-2.786,0.603-5.549
	c0-2.681-0.197-4.507-0.59-5.479c-0.384-0.96-0.997-1.44-1.837-1.44c-0.804,0-1.408,0.462-1.81,1.387
	C395.915,834.367,395.714,836.211,395.714,838.974z"/>
<path fill="#999999" d="M421.683,851.46h-5.872l-5.255-18.79h-1.287v-5.848h9.666v5.848h-1.394l2.199,10.519l2.789-10.519h-1.381
	v-5.848h8.125v5.848h-1.381l2.829,10.519l2.226-10.519h-1.341v-5.848h7.521v5.848h-1.287l-5.309,18.79h-5.792l-2.52-9.413
	L421.683,851.46z"/>
<path fill="#999999" d="M445.118,851.249h-6.69v-6.392h6.69V851.249z"/>
<path fill="#999999" d="M462.668,851.249h-10.551v-5.848h1.622V832.67h-1.622v-5.848h11.396c2.234,0,3.964,0.17,5.188,0.509
	c1.207,0.351,2.154,1.048,2.842,2.09c0.688,1.065,1.032,2.306,1.032,3.723c0,1.381-0.326,2.482-0.979,3.301
	c-0.67,0.843-1.484,1.428-2.44,1.756c1.314,0.515,2.324,1.311,3.03,2.388c0.715,1.1,1.073,2.336,1.073,3.705
	c0,1.639-0.402,3.032-1.207,4.18c-0.804,1.136-1.908,1.879-3.311,2.23C467.356,851.068,465.331,851.249,462.668,851.249z
	 M460.952,832.178v4.46h1.595c1.081,0,1.792-0.205,2.132-0.615c0.322-0.41,0.483-0.948,0.483-1.616c0-0.574-0.147-1.089-0.442-1.545
	c-0.295-0.457-1.104-0.685-2.427-0.685H460.952z M460.952,841.081v4.812h1.622c1.037,0,1.783-0.176,2.239-0.527
	c0.447-0.351,0.67-0.972,0.67-1.861c0-0.831-0.201-1.446-0.603-1.844c-0.402-0.386-1.18-0.58-2.333-0.58H460.952z"/>
<path fill="#999999" d="M476.182,832.67h-1.435v-5.848h9.546v5.848h-0.885v8.236c0,1.967,0.143,3.307,0.429,4.021
	c0.286,0.702,0.8,1.054,1.542,1.054c0.617,0,1.064-0.299,1.341-0.896c0.277-0.585,0.416-1.785,0.416-3.6v-8.816h-0.938v-5.848h7.012
	v5.848h-1.475v8.851c0,2.26-0.25,4.109-0.751,5.549c-0.501,1.428-1.332,2.546-2.494,3.354s-2.592,1.212-4.29,1.212
	c-1.368,0-2.579-0.217-3.633-0.65c-1.073-0.421-1.922-1.065-2.547-1.932c-0.626-0.855-1.086-1.891-1.381-3.108
	c-0.304-1.182-0.456-2.997-0.456-5.444V832.67z"/>
<path fill="#999999" d="M509.511,851.249H499.04v-5.848h1.609V832.67h-2.145v4.443h-3.499v-10.291h18.488v10.291h-3.499v-4.443
	h-2.132v12.732h1.649V851.249z"/>
<path fill="#999999" d="M533.469,851.249h-11.329v-5.848h1.957V832.67h-2.024v-5.848h18.367v8.043h-4.961v-2.195h-4.17v3.758h3.218
	v4.97h-3.218v4.004h2.159V851.249z"/>
<path fill="#999999" d="M546.903,851.249h-7.387v-5.848h1.421l3.499-12.732h-1.502v-5.848h13.407v5.848h-1.502l3.566,12.732h1.367
	v5.848h-9.733v-5.356h1.636l-0.711-3.073h-4.773l-0.818,3.073h1.528V851.249z M548.659,833.021l-1.756,6.761h3.338L548.659,833.021z
	"/>
<path fill="#999999" d="M568.488,851.249h-7.226v-5.848h1.435V832.67h-1.475v-5.848h11.248l2.748,9.43l2.815-9.43h11.181v5.848
	h-1.461v12.732h1.502v5.848h-9.733v-5.848h1.488v-13.645l-5.631,19.493h-2.789l-5.577-19.317v13.469h1.475V851.249z"/>
<path fill="#999999" d="M591.749,838.974c0-2.037,0.38-4.01,1.14-5.918c0.751-1.897,1.917-3.495,3.499-4.794
	c0.563-0.457,1.141-0.82,1.736-1.089c0.594-0.269,1.241-0.478,1.938-0.624c0.697-0.146,1.43-0.219,2.199-0.219
	c3.343,0,5.93,1.282,7.763,3.846c0.912,1.264,1.6,2.634,2.065,4.109c0.465,1.475,0.697,3.038,0.697,4.689
	c0,3.407-0.947,6.369-2.842,8.886c-1.895,2.517-4.456,3.776-7.682,3.776c-3.119,0-5.649-1.182-7.588-3.547
	C592.723,845.735,591.749,842.697,591.749,838.974z M599.847,838.974c0,2.716,0.201,4.548,0.603,5.497
	c0.384,0.96,0.988,1.44,1.81,1.44c0.813,0,1.421-0.462,1.823-1.387c0.402-0.937,0.603-2.786,0.603-5.549
	c0-2.681-0.197-4.507-0.59-5.479c-0.384-0.96-0.997-1.44-1.837-1.44c-0.804,0-1.408,0.462-1.81,1.387
	C600.048,834.367,599.847,836.211,599.847,838.974z"/>
<path fill="#999999" d="M616.377,832.67h-1.435v-5.848h9.546v5.848h-0.885v8.236c0,1.967,0.143,3.307,0.429,4.021
	c0.286,0.702,0.8,1.054,1.542,1.054c0.617,0,1.064-0.299,1.341-0.896c0.277-0.585,0.416-1.785,0.416-3.6v-8.816h-0.938v-5.848h7.012
	v5.848h-1.475v8.851c0,2.26-0.25,4.109-0.751,5.549c-0.5,1.428-1.332,2.546-2.494,3.354s-2.592,1.212-4.29,1.212
	c-1.367,0-2.579-0.217-3.633-0.65c-1.073-0.421-1.922-1.065-2.547-1.932c-0.626-0.855-1.086-1.891-1.381-3.108
	c-0.304-1.182-0.456-2.997-0.456-5.444V832.67z"/>
<path fill="#999999" d="M115.878,894.407h-11.329v-5.848h1.957v-12.732h-2.024v-5.848h18.367v8.043h-4.961v-2.195h-4.17v3.758h3.218
	v4.97h-3.218v4.004h2.159V894.407z"/>
<path fill="#999999" d="M129.312,894.407h-7.387v-5.848h1.421l3.499-12.732h-1.502v-5.848h13.407v5.848h-1.502l3.566,12.732h1.368
	v5.848h-9.733v-5.356h1.636l-0.711-3.073h-4.773l-0.818,3.073h1.528V894.407z M131.068,876.179l-1.756,6.761h3.338L131.068,876.179z
	"/>
<path fill="#999999" d="M153.82,894.407h-10.136v-5.848h1.515v-12.732h-1.515v-5.848h10.136c0.912,0,1.756,0.02,2.534,0.061
	c0.778,0.041,1.443,0.099,1.998,0.176s1.064,0.179,1.528,0.308c1.305,0.363,2.364,1.153,3.177,2.371
	c0.822,1.241,1.233,2.704,1.233,4.39c0,1.264-0.25,2.412-0.751,3.442c-0.501,1.019-1.157,1.768-1.971,2.248l2.574,5.584h1.341v5.848
	h-6.717l-4.062-9.975h-2.293v4.127h1.408V894.407z M152.412,875.336v4.654h0.804c1.055,0,1.77-0.041,2.145-0.123
	c0.402-0.082,0.742-0.316,1.019-0.702c0.277-0.363,0.416-0.86,0.416-1.493s-0.139-1.136-0.416-1.51
	c-0.277-0.386-0.63-0.62-1.059-0.702c-0.411-0.082-1.162-0.123-2.252-0.123H152.412z"/>
<path fill="#999999" d="M184.548,894.407h-10.551v-5.848h1.622v-12.732h-1.622v-5.848h11.396c2.234,0,3.964,0.17,5.188,0.509
	c1.207,0.351,2.154,1.048,2.842,2.09c0.688,1.065,1.032,2.306,1.032,3.723c0,1.381-0.326,2.482-0.979,3.301
	c-0.67,0.843-1.484,1.428-2.44,1.756c1.314,0.515,2.324,1.311,3.03,2.388c0.715,1.1,1.073,2.336,1.073,3.705
	c0,1.639-0.402,3.032-1.207,4.18c-0.804,1.136-1.908,1.879-3.312,2.23C189.236,894.226,187.212,894.407,184.548,894.407z
	 M182.832,875.336v4.46h1.595c1.081,0,1.792-0.205,2.132-0.615c0.322-0.41,0.483-0.948,0.483-1.616c0-0.574-0.147-1.089-0.442-1.545
	c-0.295-0.457-1.104-0.685-2.427-0.685H182.832z M182.832,884.239v4.812h1.622c1.037,0,1.783-0.176,2.239-0.527
	c0.447-0.351,0.67-0.972,0.67-1.861c0-0.831-0.201-1.446-0.603-1.844c-0.402-0.386-1.18-0.58-2.333-0.58H182.832z"/>
<path fill="#999999" d="M215.277,894.407h-17.791v-5.848h1.448v-12.732h-1.475v-5.848h17.818v7.815h-4.894v-1.967h-4.237v3.758
	h3.687v4.97h-3.687v4.004h4.237v-1.967h4.894V894.407z"/>
<path fill="#999999" d="M231.982,894.407h-10.189v-5.848h1.502v-3.881l-4.706-8.851h-1.274v-5.848h9.747v5.848h-1.113l1.984,4.987
	l2.4-4.987h-1.14v-5.848h7.173v5.848h-1.166l-4.692,8.851v3.881h1.475V894.407z"/>
<path fill="#999999" d="M236.849,882.132c0-2.037,0.38-4.01,1.14-5.918c0.751-1.897,1.917-3.495,3.499-4.794
	c0.563-0.457,1.141-0.819,1.736-1.089c0.594-0.269,1.241-0.478,1.938-0.624c0.697-0.146,1.43-0.219,2.199-0.219
	c3.343,0,5.93,1.282,7.763,3.846c0.912,1.264,1.6,2.634,2.065,4.109s0.697,3.038,0.697,4.689c0,3.407-0.947,6.369-2.842,8.886
	c-1.895,2.517-4.456,3.776-7.682,3.776c-3.119,0-5.649-1.182-7.588-3.547C237.823,888.893,236.849,885.855,236.849,882.132z
	 M244.946,882.132c0,2.716,0.201,4.548,0.603,5.497c0.384,0.96,0.988,1.44,1.81,1.44c0.813,0,1.421-0.462,1.823-1.387
	c0.402-0.937,0.603-2.786,0.603-5.549c0-2.681-0.197-4.507-0.59-5.479c-0.384-0.96-0.997-1.44-1.837-1.44
	c-0.804,0-1.408,0.462-1.81,1.387C245.147,877.525,244.946,879.369,244.946,882.132z"/>
<path fill="#999999" d="M267.792,894.407h-7.655v-5.848h1.636v-12.732h-1.636v-5.848h8.835l6.784,12.767v-6.919h-1.515v-5.848h7.521
	v5.848h-1.622v18.896h-6.14l-7.856-14.769v8.605h1.649V894.407z"/>
<path fill="#999999" d="M292.769,894.407h-8.674v-5.848h1.461v-12.732h-1.461v-5.848h8.929c2.038,0,3.7,0.164,4.987,0.492
	c1.296,0.328,2.516,1.001,3.66,2.019c1.135,1.03,2.029,2.423,2.681,4.18c0.322,0.843,0.568,1.744,0.737,2.704
	c0.17,0.96,0.255,1.967,0.255,3.021c0,2.119-0.344,4.051-1.032,5.795c-0.679,1.733-1.542,3.061-2.588,3.986
	c-1.019,0.925-2.136,1.528-3.352,1.809C297.166,894.267,295.298,894.407,292.769,894.407z M292.769,875.828v12.732h0.684
	c1.698,0,2.802-0.591,3.311-1.774c0.501-1.182,0.751-2.669,0.751-4.46c0-1.077-0.107-2.142-0.322-3.196
	c-0.223-1.054-0.617-1.867-1.18-2.441c-0.554-0.574-1.546-0.86-2.976-0.86H292.769z"/>
<path fill="#999999" d="M325.173,894.407h-10.632v-5.848h1.716v-12.732h-1.716v-5.848h10.632v5.848h-1.703v12.732h1.703V894.407z"/>
<path fill="#999999" d="M341.704,894.407h-10.471v-5.848h1.609v-12.732h-2.145v4.443h-3.499V869.98h18.488v10.291h-3.499v-4.443
	h-2.132v12.732h1.649V894.407z"/>
<path fill="#999999" d="M352.188,894.407h-4.196v-7.832h4.196c0.501,2.131,1.443,3.196,2.829,3.196c1.001,0,1.502-0.527,1.502-1.58
	c0-0.55-0.174-1.007-0.523-1.37c-0.375-0.398-1.166-0.948-2.373-1.651c-1.519-0.901-2.637-1.68-3.352-2.336
	c-0.67-0.597-1.242-1.422-1.716-2.476c-0.474-1.042-0.711-2.195-0.711-3.459c0-2.271,0.563-4.045,1.689-5.321
	c1.117-1.276,2.494-1.914,4.129-1.914c1.636,0,3.021,0.609,4.156,1.826v-1.51h4.223v6.954h-4.17c-0.509-1.92-1.412-2.88-2.708-2.88
	c-0.912,0-1.368,0.509-1.368,1.528c0,0.492,0.13,0.86,0.389,1.106c0.25,0.258,1.059,0.825,2.427,1.703
	c1.832,1.194,3.057,2.066,3.673,2.617c0.313,0.269,0.632,0.646,0.958,1.132s0.597,0.987,0.812,1.502
	c0.492,1.147,0.737,2.388,0.737,3.723c0,2.049-0.581,3.781-1.743,5.198c-1.162,1.44-2.628,2.16-4.397,2.16
	c-1.645,0-3.133-0.638-4.465-1.914V894.407z"/>
<path fill="#999999" d="M381.817,894.407h-9.814v-5.848h1.408v-12.732h-1.435v-5.848h9.841v5.848h-1.193v3.723h4.317v-3.723h-1.207
	v-5.848h9.827v5.848h-1.408v12.732h1.408v5.848h-9.827v-5.848h1.207v-4.004h-4.317v4.004h1.193V894.407z"/>
<path fill="#999999" d="M396.162,882.132c0-2.037,0.38-4.01,1.14-5.918c0.751-1.897,1.917-3.495,3.499-4.794
	c0.563-0.457,1.141-0.819,1.736-1.089c0.594-0.269,1.241-0.478,1.938-0.624c0.697-0.146,1.43-0.219,2.199-0.219
	c3.343,0,5.93,1.282,7.763,3.846c0.912,1.264,1.6,2.634,2.065,4.109c0.465,1.475,0.697,3.038,0.697,4.689
	c0,3.407-0.947,6.369-2.842,8.886c-1.895,2.517-4.456,3.776-7.682,3.776c-3.119,0-5.649-1.182-7.588-3.547
	C397.137,888.893,396.162,885.855,396.162,882.132z M404.26,882.132c0,2.716,0.201,4.548,0.603,5.497
	c0.384,0.96,0.988,1.44,1.81,1.44c0.813,0,1.421-0.462,1.823-1.387c0.402-0.937,0.603-2.786,0.603-5.549
	c0-2.681-0.197-4.507-0.59-5.479c-0.384-0.96-0.997-1.44-1.837-1.44c-0.804,0-1.408,0.462-1.81,1.387
	C404.461,877.525,404.26,879.369,404.26,882.132z"/>
<path fill="#999999" d="M426.971,894.407h-7.226v-5.848h1.435v-12.732h-1.475v-5.848h11.248l2.748,9.43l2.815-9.43h11.181v5.848
	h-1.461v12.732h1.502v5.848h-9.733v-5.848h1.488v-13.645l-5.631,19.493h-2.789l-5.577-19.317v13.469h1.475V894.407z"/>
<path fill="#999999" d="M467.903,894.407h-17.791v-5.848h1.448v-12.732h-1.475v-5.848h17.818v7.815h-4.894v-1.967h-4.237v3.758
	h3.687v4.97h-3.687v4.004h4.237v-1.967h4.894V894.407z"/>
<path fill="#999999" d="M492.343,883.642l4.84,2.23c-0.411,2.611-1.354,4.747-2.829,6.41c-1.493,1.674-3.548,2.511-6.167,2.511
	c-3.575,0-6.221-1.223-7.937-3.67c-1.725-2.435-2.588-5.409-2.588-8.921c0-3.536,0.845-6.539,2.534-9.009s3.884-3.705,6.583-3.705
	c2.19,0,3.973,0.708,5.349,2.125v-1.633h4.478v8.921h-4.652c-0.241-1.112-0.648-1.99-1.22-2.634
	c-0.572-0.632-1.224-0.948-1.957-0.948c-2.02,0-3.03,2.277-3.03,6.831c0,4.566,1.046,6.849,3.137,6.849
	C490.717,888.998,491.87,887.213,492.343,883.642z"/>
<path fill="#999999" d="M509.933,894.407h-10.632v-5.848h1.716v-12.732h-1.716v-5.848h10.632v5.848h-1.703v12.732h1.703V894.407z"/>
<path fill="#999999" d="M526.464,894.407h-10.471v-5.848h1.609v-12.732h-2.145v4.443h-3.499V869.98h18.488v10.291h-3.499v-4.443
	h-2.132v12.732h1.649V894.407z"/>
<path fill="#999999" d="M546.655,894.407h-10.189v-5.848h1.502v-3.881l-4.706-8.851h-1.274v-5.848h9.747v5.848h-1.113l1.984,4.987
	l2.4-4.987h-1.14v-5.848h7.173v5.848h-1.166l-4.692,8.851v3.881h1.475V894.407z"/>
<linearGradient id="SVGID_2_" gradientUnits="userSpaceOnUse" x1="-27.0146" y1="893.4796" x2="43.4959" y2="867.8159">
	<stop  offset="0" style="stop-color:#FFFFFF"/>
	<stop  offset="1" style="stop-color:#000000"/>
</linearGradient>
<path opacity="0.9" fill="url(#SVGID_2_)" d="M-2.803,783.172V960h71.88C53.222,881.455,27.883,818.795-2.803,783.172z"/>
<linearGradient id="SVGID_3_" gradientUnits="userSpaceOnUse" x1="536.6326" y1="228.5174" x2="710.5121" y2="165.2305">
	<stop  offset="0" style="stop-color:#FFFFFF"/>
	<stop  offset="1" style="stop-color:#000000"/>
</linearGradient>
<path fill="url(#SVGID_3_)" d="M650.914,1.486H492.587c22.387,205.192,82.278,367.183,158.327,428.499"/>
<g>
	<g>
		<path fill="none" stroke="#000000" stroke-width="2" stroke-miterlimit="10" d="M497.567,301.868"/>
	</g>
</g>
<g>
	<g>
		<path fill="none" stroke="#000000" stroke-width="2" stroke-miterlimit="10" d="M227.634,262.935"/>
	</g>
</g>
</svg>
