<?xml version="1.0" encoding="utf-8"?>
<!-- Generator: Adobe Illustrator 17.0.0, SVG Export Plug-In . SVG Version: 6.00 Build 0)  -->
<!DOCTYPE svg PUBLIC "-//W3C//DTD SVG 1.1//EN" "http://www.w3.org/Graphics/SVG/1.1/DTD/svg11.dtd">
<svg version="1.1" id="Layer_1" xmlns="http://www.w3.org/2000/svg" xmlns:xlink="http://www.w3.org/1999/xlink" x="0px" y="0px"
	 width="640px" height="960px" viewBox="0 0 640 960" enable-background="new 0 0 640 960" xml:space="preserve">
<g>
	<path fill="#FECC0D" stroke="#000000" stroke-width="5" stroke-miterlimit="10" d="M822.515,192.522H643.653v86.406h243.206
		C848.966,260.818,830.506,235,822.515,192.522z"/>
	<path fill="#FECC0D" stroke="#000000" stroke-width="5" stroke-miterlimit="10" d="M1106.658,193.48
		c-7.991,42.478-26.451,67.338-64.344,85.448h243.206v-86.406L1106.658,193.48z"/>
</g>
<path fill="#FECC0D" stroke="#000000" stroke-width="5" stroke-miterlimit="10" d="M1284.628,0H642.76v174.647h200.496
	c5.313,61.861,57.201,110.416,120.438,110.416s115.125-48.555,120.438-110.416h200.496V0z"/>
<path fill="#FF0000" stroke="#000000" stroke-width="5" stroke-miterlimit="10" d="M1016.207,238.613h-97.331v-40.692h23.255V73.723
	h-22.285v26.988h-36.35v-67.68h167.536v67.68h-36.353V73.723h-20.509v124.198h22.036V238.613z"/>
<circle cx="1182.857" cy="235.725" r="28.567"/>
<circle fill="#FECC0D" stroke="#000000" stroke-width="5" stroke-miterlimit="10" cx="1182.857" cy="235.725" r="24.996"/>
<rect x="692.37" y="216.085" width="91.823" height="10.203"/>
<rect x="692.37" y="230.624" width="91.823" height="10.203"/>
<rect x="692.37" y="245.163" width="91.823" height="10.203"/>
<linearGradient id="SVGID_1_" gradientUnits="userSpaceOnUse" x1="-143.147" y1="685.7156" x2="778.9487" y2="350.1002">
	<stop  offset="0" style="stop-color:#FBAE17"/>
	<stop  offset="0.3744" style="stop-color:#FBB41A"/>
	<stop  offset="0.7833" style="stop-color:#FFE631"/>
	<stop  offset="1" style="stop-color:#FFFF00"/>
</linearGradient>
<rect x="-5.893" y="-27.003" fill="url(#SVGID_1_)" stroke="#000000" stroke-miterlimit="10" width="647.587" height="1089.821"/>
<g>
	<path fill="#333333" d="M186.471,537.935h-48.256v-15.411h3.927v-33.552h-4v-15.411h48.329v20.594h-13.273v-5.183h-11.491v9.904h10
		v13.097h-10v10.551h11.491v-5.183h13.273V537.935z"/>
	<path fill="#333333" d="M205.453,537.935h-11.382v-20.64h11.382c1.357,5.616,3.915,8.423,7.673,8.423
		c2.715,0,4.073-1.388,4.073-4.165c0-1.449-0.473-2.652-1.418-3.61c-1.018-1.049-3.164-2.499-6.437-4.35
		c-4.122-2.375-7.152-4.427-9.091-6.155c-1.818-1.573-3.371-3.749-4.655-6.525c-1.285-2.745-1.927-5.785-1.927-9.117
		c0-5.984,1.527-10.659,4.582-14.022c3.03-3.362,6.764-5.044,11.2-5.044s8.194,1.605,11.273,4.813v-3.98h11.455v18.326h-11.309
		c-1.382-5.059-3.831-7.59-7.346-7.59c-2.473,0-3.709,1.342-3.709,4.026c0,1.296,0.351,2.268,1.055,2.916
		c0.678,0.68,2.873,2.175,6.582,4.489c4.97,3.147,8.291,5.446,9.964,6.895c0.848,0.71,1.714,1.706,2.6,2.986
		c0.885,1.28,1.619,2.6,2.201,3.956c1.333,3.024,2,6.294,2,9.811c0,5.4-1.576,9.966-4.727,13.698
		c-3.152,3.795-7.128,5.692-11.928,5.692c-4.461,0-8.498-1.681-12.11-5.044V537.935z"/>
	<path fill="#333333" d="M279.42,537.935h-28.401v-15.411h4.364v-33.552h-5.818v11.708h-9.491v-27.119h50.147v27.119h-9.491v-11.708
		h-5.782v33.552h4.473V537.935z"/>
	<path fill="#333333" d="M353.277,537.935h-30.256v-14.809h7.2v-29.109c-1.309,0.432-3.103,0.648-5.382,0.648
		c-0.727,0-1.334-0.046-1.818-0.139v-14.254c0.291,0.032,0.593,0.046,0.909,0.046c3.175,0,6.121-0.787,8.837-2.36
		c2.764-1.604,4.739-3.501,5.927-5.692h7.6v50.86h6.982V537.935z"/>
	<path fill="#333333" d="M375.75,504.06c-2.182-0.986-4.025-2.622-5.527-4.905c-1.527-2.314-2.291-5.121-2.291-8.423
		c0-5.491,1.782-9.95,5.346-13.374c3.588-3.393,8.594-5.091,15.019-5.091c6.691,0,11.83,1.666,15.419,4.998
		c3.612,3.332,5.418,7.652,5.418,12.958c0,6.479-2.582,11.092-7.746,13.837c2.642,0.833,4.848,2.561,6.618,5.183
		c1.746,2.623,2.618,5.924,2.618,9.904c0,5.893-1.807,10.598-5.418,14.115c-3.589,3.517-9.213,5.276-16.873,5.276
		c-7.467,0-12.958-1.819-16.473-5.461c-3.54-3.61-5.309-8.175-5.309-13.698C366.55,512.066,369.616,506.961,375.75,504.06z
		 M381.823,518.082c0,2.623,0.642,4.66,1.927,6.109c1.284,1.451,2.933,2.175,4.946,2.175c2.084,0,3.721-0.755,4.909-2.268
		c1.164-1.542,1.746-3.578,1.746-6.109c0-2.529-0.582-4.535-1.746-6.016c-1.189-1.481-2.8-2.221-4.837-2.221
		c-2.182,0-3.88,0.833-5.091,2.499C382.442,513.917,381.823,515.861,381.823,518.082z M382.66,491.472
		c0,2.006,0.509,3.656,1.527,4.952c0.969,1.328,2.46,1.99,4.473,1.99c1.6,0,2.957-0.57,4.073-1.712
		c1.115-1.111,1.673-2.884,1.673-5.322c0-2.097-0.509-3.809-1.527-5.137c-1.043-1.296-2.436-1.944-4.182-1.944
		s-3.176,0.664-4.291,1.99C383.242,487.616,382.66,489.343,382.66,491.472z"/>
	<path fill="#333333" d="M426.989,504.06c-2.182-0.986-4.025-2.622-5.527-4.905c-1.527-2.314-2.291-5.121-2.291-8.423
		c0-5.491,1.782-9.95,5.346-13.374c3.588-3.393,8.594-5.091,15.019-5.091c6.691,0,11.83,1.666,15.419,4.998
		c3.612,3.332,5.418,7.652,5.418,12.958c0,6.479-2.582,11.092-7.746,13.837c2.642,0.833,4.848,2.561,6.618,5.183
		c1.746,2.623,2.618,5.924,2.618,9.904c0,5.893-1.807,10.598-5.418,14.115c-3.589,3.517-9.213,5.276-16.873,5.276
		c-7.467,0-12.958-1.819-16.473-5.461c-3.54-3.61-5.309-8.175-5.309-13.698C417.788,512.066,420.854,506.961,426.989,504.06z
		 M433.062,518.082c0,2.623,0.642,4.66,1.927,6.109c1.284,1.451,2.933,2.175,4.946,2.175c2.084,0,3.721-0.755,4.909-2.268
		c1.164-1.542,1.746-3.578,1.746-6.109c0-2.529-0.582-4.535-1.746-6.016c-1.189-1.481-2.8-2.221-4.837-2.221
		c-2.182,0-3.88,0.833-5.091,2.499C433.68,513.917,433.062,515.861,433.062,518.082z M433.898,491.472
		c0,2.006,0.509,3.656,1.527,4.952c0.969,1.328,2.46,1.99,4.473,1.99c1.6,0,2.957-0.57,4.073-1.712
		c1.115-1.111,1.673-2.884,1.673-5.322c0-2.097-0.509-3.809-1.527-5.137c-1.043-1.296-2.436-1.944-4.182-1.944
		c-1.746,0-3.176,0.664-4.291,1.99C434.48,487.616,433.898,489.343,433.898,491.472z"/>
	<path fill="#333333" d="M468.408,520.627l13.164-1.064c1.164,3.517,3.406,5.276,6.728,5.276c1.964,0,3.624-0.678,4.982-2.036
		c1.309-1.357,1.964-3.485,1.964-6.386c0-2.838-0.655-4.92-1.964-6.248c-1.334-1.296-2.885-1.944-4.655-1.944
		c-2.716,0-4.994,1.265-6.837,3.795l-11.019-4.952l1.527-33.505h37.274v16.845h-8.546l-1.2-3.934h-18.073l-0.436,12.773
		c3.248-2.592,7.115-3.887,11.6-3.887c5.479,0,10.012,1.867,13.6,5.6c3.588,3.734,5.382,8.855,5.382,15.364
		c0,6.356-1.891,11.648-5.673,15.873c-3.807,4.227-9.104,6.34-15.891,6.34c-5.964,0-10.898-1.604-14.801-4.813
		C471.656,530.547,469.281,526.181,468.408,520.627z"/>
	<path fill="#333333" d="M41.193,710.01h-50.07v-27.169h7.693v-59.149h-10.257v20.64h-16.732v-47.809h88.407v47.809H43.501v-20.64
		H33.308v59.149h7.885V710.01z"/>
	<path fill="#333333" d="M131.085,698.787H62.838v-21.796h5.554v-47.451h-5.658v-21.796h68.352v29.126h-18.773v-7.33H96.061v14.006
		h14.144v18.522H96.061v14.923h16.252v-7.33h18.773V698.787z"/>
	<path fill="#333333" d="M169.864,698.787h-29.367v-21.796h6.276v-47.451h-6.276v-21.796h33.893l26.024,47.583v-25.787h-5.812
		v-21.796h28.853v21.796h-6.224v70.425h-23.554l-30.139-55.044v32.071h6.326V698.787z"/>
	<path fill="#333333" d="M259.815,698.787h-29.367v-21.796h6.276v-47.451h-6.276v-21.796h33.893l26.024,47.583v-25.787h-5.812
		v-21.796h28.853v21.796h-6.224v70.425h-23.554l-30.139-55.044v32.071h6.326V698.787z"/>
	<path fill="#333333" d="M389.986,698.787h-68.248v-21.796h5.555v-47.451h-5.658v-21.796h68.352v29.126h-18.773v-7.33h-16.252
		v14.006h14.144v18.522h-14.144v14.923h16.252v-7.33h18.773V698.787z"/>
	<path fill="#333333" d="M428.764,698.787h-29.367v-21.796h6.276v-47.451h-6.276v-21.796h33.893l26.024,47.583v-25.787h-5.812
		v-21.796h28.853v21.796h-6.224v70.425h-23.554l-30.139-55.044v32.071h6.326V698.787z"/>
	<path fill="#333333" d="M545.563,698.787h-40.168v-21.796h6.172v-47.451h-8.229v16.558h-13.423v-38.354h70.923v38.354h-13.424
		v-16.558h-8.177v47.451h6.325V698.787z"/>
	<path fill="#333333" d="M572.924,643.847v-12.828c2.743,0,4.834-0.524,6.274-1.571c1.44-1.09,2.332-2.334,2.674-3.73
		c0.377-1.44,0.583-4.21,0.617-8.313h-9.566v-23.824h25.663v20.356c0,7.287-0.206,12.284-0.617,14.987
		c-0.411,2.749-1.612,5.412-3.599,7.985c-1.955,2.618-4.372,4.429-7.252,5.433C584.239,643.346,579.507,643.847,572.924,643.847z"/>
	<path fill="#333333" d="M627.491,698.787h-16.097v-29.191h16.097c1.92,7.941,5.537,11.912,10.852,11.912
		c3.839,0,5.76-1.964,5.76-5.891c0-2.051-0.669-3.753-2.006-5.105c-1.44-1.484-4.475-3.534-9.103-6.152
		c-5.83-3.36-10.116-6.261-12.859-8.706c-2.57-2.225-4.766-5.301-6.583-9.228c-1.817-3.883-2.725-8.182-2.725-12.894
		c0-8.464,2.16-15.075,6.48-19.831c4.286-4.756,9.566-7.135,15.841-7.135c6.275,0,11.589,2.27,15.943,6.807v-5.629h16.201v25.918
		h-15.995c-1.954-7.155-5.418-10.734-10.389-10.734c-3.497,0-5.246,1.899-5.246,5.695c0,1.833,0.497,3.206,1.491,4.123
		c0.96,0.961,4.063,3.077,9.309,6.349c7.028,4.451,11.726,7.702,14.092,9.751c1.2,1.005,2.425,2.412,3.677,4.222
		c1.251,1.811,2.289,3.677,3.112,5.596c1.885,4.277,2.829,8.901,2.829,13.875c0,7.637-2.23,14.095-6.687,19.373
		c-4.457,5.367-10.08,8.051-16.869,8.051c-6.309,0-12.017-2.377-17.126-7.135V698.787z"/>
</g>
<g opacity="0.9">
	<path fill="#999999" d="M28.732,768.339H18.417v-5.761h1.585v-12.542h-2.113v4.377h-3.447v-10.137h18.213v10.137h-3.447v-4.377
		h-2.1v12.542h1.624V768.339z"/>
	<path fill="#999999" d="M52.452,768.339H34.926v-5.761h1.426v-12.542H34.9v-5.761h17.552v7.698h-4.821v-1.938h-4.173v3.702h3.632
		v4.896h-3.632v3.944h4.173v-1.938h4.821V768.339z"/>
	<path fill="#999999" d="M62.41,768.339h-7.541v-5.761h1.611v-12.542h-1.611v-5.761h8.703l6.683,12.577v-6.816h-1.492v-5.761h7.409
		v5.761h-1.598v18.614h-6.049l-7.739-14.549v8.477h1.624V768.339z"/>
	<path fill="#999999" d="M85.509,768.339h-7.541v-5.761h1.611v-12.542h-1.611v-5.761h8.703l6.683,12.577v-6.816h-1.492v-5.761h7.409
		v5.761h-1.598v18.614h-6.049l-7.739-14.549v8.477h1.624V768.339z"/>
	<path fill="#999999" d="M118.937,768.339h-17.526v-5.761h1.426v-12.542h-1.453v-5.761h17.552v7.698h-4.821v-1.938h-4.173v3.702
		h3.632v4.896h-3.632v3.944h4.173v-1.938h4.821V768.339z"/>
	<path fill="#999999" d="M128.895,768.339h-7.541v-5.761h1.611v-12.542h-1.611v-5.761h8.703l6.683,12.577v-6.816h-1.492v-5.761
		h7.409v5.761h-1.598v18.614h-6.049l-7.739-14.549v8.477h1.624V768.339z"/>
	<path fill="#999999" d="M158.888,768.339h-10.315v-5.761h1.585v-12.542h-2.113v4.377h-3.447v-10.137h18.213v10.137h-3.447v-4.377
		h-2.1v12.542h1.624V768.339z"/>
	<path fill="#999999" d="M169.216,768.339h-4.134v-7.715h4.134c0.493,2.099,1.422,3.148,2.787,3.148
		c0.986,0,1.479-0.519,1.479-1.557c0-0.542-0.172-0.992-0.515-1.349c-0.37-0.392-1.149-0.934-2.338-1.626
		c-1.497-0.888-2.597-1.655-3.302-2.301c-0.66-0.588-1.224-1.401-1.691-2.439c-0.467-1.026-0.7-2.162-0.7-3.408
		c0-2.237,0.555-3.985,1.664-5.242c1.101-1.257,2.457-1.886,4.068-1.886c1.611,0,2.976,0.6,4.094,1.799v-1.488h4.16v6.851h-4.107
		c-0.502-1.891-1.391-2.837-2.668-2.837c-0.898,0-1.347,0.502-1.347,1.505c0,0.484,0.128,0.848,0.383,1.09
		c0.247,0.254,1.043,0.813,2.39,1.678c1.805,1.176,3.011,2.036,3.619,2.578c0.308,0.265,0.622,0.637,0.944,1.115
		c0.321,0.479,0.588,0.972,0.799,1.48c0.484,1.13,0.726,2.353,0.726,3.667c0,2.018-0.572,3.725-1.717,5.121
		c-1.145,1.419-2.589,2.128-4.332,2.128c-1.62,0-3.086-0.629-4.398-1.886V768.339z"/>
	<path fill="#999999" d="M205.972,768.339h-17.486v-5.761h1.651v-12.542h-1.651v-5.761h10.5v5.761h-1.743v12.542h4.345v-3.858h4.385
		V768.339z"/>
	<path fill="#999999" d="M213.988,768.339h-7.277v-5.761h1.4l3.447-12.542h-1.479v-5.761h13.207v5.761h-1.479l3.513,12.542h1.347
		v5.761h-9.588v-5.276h1.611l-0.7-3.027h-4.702l-0.806,3.027h1.506V768.339z M215.718,750.382l-1.73,6.66h3.289L215.718,750.382z"/>
	<path fill="#999999" d="M241.525,760.052h-1.875v-4.567h8.215c0,2.63-0.141,4.584-0.423,5.865
		c-0.273,1.234-0.845,2.485-1.717,3.754c-0.854,1.257-1.889,2.174-3.104,2.751c-1.215,0.577-2.518,0.865-3.909,0.865
		c-2.069,0-3.949-0.45-5.639-1.349c-1.699-0.877-3.011-2.33-3.936-4.359c-0.933-1.995-1.4-4.233-1.4-6.712
		c0-3.748,0.942-6.77,2.826-9.065c1.867-2.295,4.156-3.443,6.868-3.443c2.263,0,4.037,0.721,5.322,2.162v-1.678h4.424v8.407h-4.424
		c-0.387-1.038-0.892-1.822-1.512-2.353c-0.622-0.531-1.345-0.796-2.173-0.796c-1.162,0-2.016,0.496-2.562,1.488
		c-0.537,0.992-0.806,2.814-0.806,5.467c0,2.641,0.282,4.434,0.845,5.38c0.572,0.957,1.404,1.436,2.496,1.436
		C240.698,763.305,241.525,762.22,241.525,760.052z"/>
	<path fill="#999999" d="M268.005,768.339H250.48v-5.761h1.426v-12.542h-1.453v-5.761h17.552v7.698h-4.821v-1.938h-4.173v3.702
		h3.632v4.896h-3.632v3.944h4.173v-1.938h4.821V768.339z"/>
	<path fill="#999999" d="M280.711,768.339h-9.985v-5.761h1.492v-12.542h-1.492v-5.761h9.985c0.898,0,1.73,0.02,2.496,0.06
		c0.766,0.04,1.422,0.098,1.968,0.173c0.546,0.075,1.048,0.176,1.506,0.303c1.285,0.357,2.329,1.136,3.13,2.335
		c0.81,1.222,1.215,2.664,1.215,4.325c0,1.246-0.247,2.376-0.74,3.391c-0.493,1.003-1.14,1.741-1.941,2.214l2.536,5.501h1.321v5.761
		h-6.617l-4.002-9.826h-2.258v4.065h1.387V768.339z M279.324,749.552v4.584h0.792c1.039,0,1.743-0.04,2.113-0.121
		c0.396-0.081,0.731-0.311,1.004-0.692c0.273-0.357,0.409-0.848,0.409-1.47c0-0.623-0.136-1.119-0.409-1.488
		c-0.273-0.381-0.621-0.611-1.043-0.692c-0.405-0.081-1.145-0.121-2.219-0.121H279.324z"/>
	<path fill="#999999" d="M310.823,768.339H300.35v-5.761h1.691v-12.542h-1.691v-5.761h10.473v5.761h-1.677v12.542h1.677V768.339z"/>
	<path fill="#999999" d="M317.149,768.339h-4.134v-7.715h4.134c0.493,2.099,1.422,3.148,2.787,3.148
		c0.986,0,1.479-0.519,1.479-1.557c0-0.542-0.172-0.992-0.515-1.349c-0.37-0.392-1.149-0.934-2.338-1.626
		c-1.497-0.888-2.597-1.655-3.302-2.301c-0.66-0.588-1.224-1.401-1.691-2.439c-0.467-1.026-0.7-2.162-0.7-3.408
		c0-2.237,0.555-3.985,1.664-5.242c1.101-1.257,2.457-1.886,4.068-1.886s2.976,0.6,4.094,1.799v-1.488h4.16v6.851h-4.107
		c-0.502-1.891-1.391-2.837-2.668-2.837c-0.898,0-1.347,0.502-1.347,1.505c0,0.484,0.128,0.848,0.383,1.09
		c0.247,0.254,1.043,0.813,2.39,1.678c1.805,1.176,3.011,2.036,3.619,2.578c0.308,0.265,0.622,0.637,0.944,1.115
		c0.321,0.479,0.588,0.972,0.799,1.48c0.484,1.13,0.726,2.353,0.726,3.667c0,2.018-0.572,3.725-1.717,5.121
		c-1.145,1.419-2.589,2.128-4.332,2.128c-1.62,0-3.086-0.629-4.398-1.886V768.339z"/>
	<path fill="#999999" d="M343.748,768.339h-7.119v-5.761h1.413v-12.542h-1.453v-5.761h11.081l2.707,9.29l2.773-9.29h11.015v5.761
		h-1.44v12.542h1.479v5.761h-9.588v-5.761h1.466v-13.442l-5.547,19.202h-2.747l-5.494-19.029v13.269h1.453V768.339z"/>
	<path fill="#999999" d="M372.896,768.339h-7.277v-5.761h1.4l3.447-12.542h-1.479v-5.761h13.207v5.761h-1.479l3.513,12.542h1.347
		v5.761h-9.588v-5.276h1.611l-0.7-3.027h-4.702l-0.806,3.027h1.506V768.339z M374.627,750.382l-1.73,6.66h3.289L374.627,750.382z"/>
	<path fill="#999999" d="M395.798,768.339h-8.545v-5.761h1.44v-12.542h-1.44v-5.761h8.796c2.008,0,3.645,0.161,4.913,0.484
		c1.277,0.323,2.479,0.986,3.606,1.989c1.118,1.015,1.999,2.387,2.641,4.117c0.317,0.83,0.559,1.718,0.726,2.664
		c0.167,0.946,0.251,1.938,0.251,2.975c0,2.087-0.339,3.99-1.017,5.709c-0.669,1.707-1.519,3.016-2.549,3.927
		c-1.004,0.911-2.104,1.505-3.302,1.782C400.13,768.2,398.289,768.339,395.798,768.339z M395.798,750.036v12.542h0.674
		c1.673,0,2.76-0.582,3.262-1.747c0.493-1.165,0.74-2.63,0.74-4.394c0-1.061-0.106-2.111-0.317-3.148
		c-0.22-1.038-0.608-1.839-1.162-2.405c-0.546-0.565-1.523-0.848-2.932-0.848H395.798z"/>
	<path fill="#999999" d="M428.287,768.339h-17.526v-5.761h1.426v-12.542h-1.453v-5.761h17.552v7.698h-4.821v-1.938h-4.173v3.702
		h3.632v4.896h-3.632v3.944h4.173v-1.938h4.821V768.339z"/>
	<path fill="#999999" d="M446.87,768.546h-5.785l-5.177-18.51h-1.268v-5.761h9.522v5.761h-1.374l2.166,10.362l2.747-10.362h-1.36
		v-5.761h8.004v5.761h-1.36l2.787,10.362l2.192-10.362h-1.321v-5.761h7.409v5.761h-1.268l-5.23,18.51h-5.705l-2.483-9.272
		L446.87,768.546z"/>
	<path fill="#999999" d="M475.701,768.339h-10.473v-5.761h1.691v-12.542h-1.691v-5.761h10.473v5.761h-1.677v12.542h1.677V768.339z"
		/>
	<path fill="#999999" d="M491.985,768.339H481.67v-5.761h1.585v-12.542h-2.113v4.377h-3.447v-10.137h18.213v10.137h-3.447v-4.377
		h-2.1v12.542h1.624V768.339z"/>
	<path fill="#999999" d="M507.834,768.339h-9.668v-5.761h1.387v-12.542h-1.413v-5.761h9.694v5.761h-1.175v3.667h4.253v-3.667h-1.189
		v-5.761h9.681v5.761h-1.387v12.542h1.387v5.761h-9.681v-5.761h1.189v-3.944h-4.253v3.944h1.175V768.339z"/>
	<path fill="#999999" d="M539.306,768.339h-10.737v-5.761h1.783v-12.542h-1.783v-5.761h11.266c2.589,0,4.482,0.329,5.679,0.986
		c1.197,0.669,2.078,1.58,2.641,2.733c0.563,1.153,0.845,2.416,0.845,3.789c0,1.695-0.335,3.102-1.004,4.221
		c-0.669,1.13-1.554,1.949-2.655,2.457c-1.083,0.496-2.756,0.744-5.019,0.744h-2.866v3.373h1.849V768.339z M537.457,749.552v4.515
		h1.387c0.969,0,1.673-0.15,2.113-0.45c0.423-0.3,0.634-0.882,0.634-1.747c0-0.565-0.114-1.044-0.343-1.436
		c-0.22-0.381-0.515-0.623-0.885-0.727c-0.352-0.104-0.951-0.156-1.796-0.156H537.457z"/>
	<path fill="#999999" d="M560.821,768.339h-9.985v-5.761h1.492v-12.542h-1.492v-5.761h9.985c0.898,0,1.73,0.02,2.496,0.06
		c0.766,0.04,1.422,0.098,1.968,0.173c0.546,0.075,1.048,0.176,1.506,0.303c1.285,0.357,2.329,1.136,3.13,2.335
		c0.81,1.222,1.215,2.664,1.215,4.325c0,1.246-0.247,2.376-0.74,3.391c-0.493,1.003-1.14,1.741-1.941,2.214l2.536,5.501h1.321v5.761
		h-6.617l-4.002-9.826h-2.258v4.065h1.387V768.339z M559.434,749.552v4.584h0.792c1.039,0,1.743-0.04,2.113-0.121
		c0.396-0.081,0.731-0.311,1.004-0.692c0.273-0.357,0.409-0.848,0.409-1.47c0-0.623-0.136-1.119-0.409-1.488
		c-0.273-0.381-0.621-0.611-1.043-0.692c-0.405-0.081-1.145-0.121-2.219-0.121H559.434z"/>
	<path fill="#999999" d="M584.171,768.339h-10.473v-5.761h1.691v-12.542h-1.691v-5.761h10.473v5.761h-1.677v12.542h1.677V768.339z"
		/>
	<path fill="#999999" d="M595.067,768.339h-8.545v-5.761h1.44v-12.542h-1.44v-5.761h8.796c2.008,0,3.645,0.161,4.913,0.484
		c1.277,0.323,2.479,0.986,3.606,1.989c1.118,1.015,1.999,2.387,2.641,4.117c0.317,0.83,0.559,1.718,0.726,2.664
		c0.167,0.946,0.251,1.938,0.251,2.975c0,2.087-0.339,3.99-1.017,5.709c-0.669,1.707-1.519,3.016-2.549,3.927
		c-1.004,0.911-2.104,1.505-3.302,1.782C599.399,768.2,597.558,768.339,595.067,768.339z M595.067,750.036v12.542h0.674
		c1.673,0,2.76-0.582,3.262-1.747c0.493-1.165,0.74-2.63,0.74-4.394c0-1.061-0.106-2.111-0.317-3.148
		c-0.22-1.038-0.607-1.839-1.162-2.405c-0.546-0.565-1.523-0.848-2.932-0.848H595.067z"/>
	<path fill="#999999" d="M627.556,768.339H610.03v-5.761h1.426v-12.542h-1.453v-5.761h17.552v7.698h-4.821v-1.938h-4.173v3.702
		h3.632v4.896h-3.632v3.944h4.173v-1.938h4.821V768.339z"/>
	<path fill="#999999" d="M13.855,810.853H3.381v-5.761h1.691v-12.542H3.381v-5.761h10.473v5.761h-1.677v12.542h1.677V810.853z"/>
	<path fill="#999999" d="M23.245,810.853h-7.541v-5.761h1.611v-12.542h-1.611v-5.761h8.703l6.683,12.577v-6.816h-1.492v-5.761h7.409
		v5.761h-1.598v18.614H29.36l-7.739-14.549v8.477h1.624V810.853z"/>
	<path fill="#999999" d="M57.966,810.853H47.652v-5.761h1.585v-12.542h-2.113v4.377h-3.447V786.79h18.213v10.137h-3.447v-4.377h-2.1
		v12.542h1.624V810.853z"/>
	<path fill="#999999" d="M73.815,810.853h-9.668v-5.761h1.387v-12.542h-1.413v-5.761h9.694v5.761h-1.175v3.667h4.253v-3.667h-1.189
		v-5.761h9.681v5.761h-1.387v12.542h1.387v5.761h-9.681v-5.761h1.189v-3.944h-4.253v3.944h1.175V810.853z"/>
	<path fill="#999999" d="M105.354,810.853H87.828v-5.761h1.426v-12.542h-1.453v-5.761h17.552v7.698h-4.821v-1.938h-4.173v3.702
		h3.632v4.896h-3.632v3.944h4.173v-1.938h4.821V810.853z"/>
	<path fill="#999999" d="M124.53,810.853h-9.668v-5.761h1.387v-12.542h-1.413v-5.761h9.694v5.761h-1.175v3.667h4.253v-3.667h-1.189
		v-5.761h9.681v5.761h-1.387v12.542h1.387v5.761h-9.681v-5.761h1.189v-3.944h-4.253v3.944h1.175V810.853z"/>
	<path fill="#999999" d="M156.069,810.853h-17.526v-5.761h1.426v-12.542h-1.453v-5.761h17.552v7.698h-4.821v-1.938h-4.173v3.702
		h3.632v4.896h-3.632v3.944h4.173v-1.938h4.821V810.853z"/>
	<path fill="#999999" d="M165.182,810.853h-7.277v-5.761h1.4l3.447-12.542h-1.479v-5.761h13.207v5.761H173l3.513,12.542h1.347v5.761
		h-9.588v-5.276h1.611l-0.7-3.027h-4.702l-0.806,3.027h1.506V810.853z M166.912,792.897l-1.73,6.66h3.289L166.912,792.897z"/>
	<path fill="#999999" d="M189.324,810.853h-9.985v-5.761h1.492v-12.542h-1.492v-5.761h9.985c0.898,0,1.73,0.02,2.496,0.06
		c0.766,0.04,1.422,0.098,1.968,0.173c0.546,0.075,1.048,0.176,1.506,0.303c1.285,0.358,2.329,1.136,3.13,2.335
		c0.81,1.222,1.215,2.664,1.215,4.325c0,1.246-0.247,2.376-0.74,3.391c-0.493,1.003-1.14,1.741-1.941,2.214l2.536,5.501h1.321v5.761
		h-6.617l-4.002-9.826h-2.258v4.065h1.387V810.853z M187.938,792.066v4.584h0.792c1.039,0,1.743-0.04,2.113-0.121
		c0.396-0.081,0.731-0.311,1.004-0.692c0.273-0.357,0.409-0.848,0.409-1.47c0-0.623-0.136-1.119-0.409-1.488
		c-0.273-0.381-0.621-0.611-1.043-0.692c-0.405-0.081-1.145-0.121-2.219-0.121H187.938z"/>
	<path fill="#999999" d="M215.897,810.853h-10.315v-5.761h1.585v-12.542h-2.113v4.377h-3.447V786.79h18.213v10.137h-3.447v-4.377
		h-2.1v12.542h1.624V810.853z"/>
	<path fill="#999999" d="M228.972,798.761c0-2.007,0.374-3.95,1.123-5.83c0.74-1.868,1.889-3.443,3.447-4.723
		c0.555-0.45,1.124-0.807,1.71-1.073s1.222-0.471,1.909-0.615c0.687-0.144,1.409-0.216,2.166-0.216c3.293,0,5.842,1.263,7.647,3.789
		c0.898,1.246,1.576,2.595,2.034,4.048c0.458,1.453,0.687,2.993,0.687,4.619c0,3.356-0.933,6.274-2.8,8.753
		s-4.389,3.719-7.568,3.719c-3.073,0-5.565-1.165-7.475-3.495C229.932,805.421,228.972,802.429,228.972,798.761z M236.949,798.761
		c0,2.676,0.198,4.481,0.594,5.415c0.379,0.946,0.973,1.419,1.783,1.419c0.801,0,1.4-0.456,1.796-1.367
		c0.396-0.923,0.594-2.745,0.594-5.467c0-2.641-0.194-4.44-0.581-5.397c-0.379-0.946-0.982-1.419-1.809-1.419
		c-0.792,0-1.387,0.456-1.783,1.367C237.147,794.223,236.949,796.039,236.949,798.761z"/>
	<path fill="#999999" d="M262.901,810.853h-11.16v-5.761h1.928v-12.542h-1.994v-5.761h18.094v7.923h-4.887v-2.162h-4.107v3.702h3.17
		v4.896h-3.17v3.944h2.126V810.853z"/>
	<path fill="#999999" d="M292.049,802.567h-1.875V798h8.215c0,2.63-0.141,4.584-0.423,5.865c-0.273,1.234-0.845,2.485-1.717,3.754
		c-0.854,1.257-1.889,2.174-3.104,2.751s-2.518,0.865-3.909,0.865c-2.069,0-3.949-0.45-5.639-1.349
		c-1.699-0.877-3.011-2.33-3.936-4.359c-0.933-1.995-1.4-4.233-1.4-6.712c0-3.748,0.942-6.77,2.826-9.065
		c1.867-2.295,4.156-3.443,6.868-3.443c2.263,0,4.037,0.721,5.322,2.162v-1.678h4.424v8.407h-4.424
		c-0.387-1.038-0.892-1.822-1.512-2.353c-0.622-0.531-1.345-0.796-2.173-0.796c-1.162,0-2.016,0.496-2.562,1.488
		c-0.537,0.992-0.806,2.814-0.806,5.467c0,2.641,0.282,4.434,0.845,5.38c0.572,0.957,1.404,1.436,2.496,1.436
		C291.222,805.819,292.049,804.735,292.049,802.567z"/>
	<path fill="#999999" d="M318.226,810.853H300.74v-5.761h1.651v-12.542h-1.651v-5.761h10.5v5.761h-1.743v12.542h4.345v-3.858h4.385
		V810.853z"/>
	<path fill="#999999" d="M326.243,810.853h-7.277v-5.761h1.4l3.447-12.542h-1.479v-5.761h13.207v5.761h-1.479l3.513,12.542h1.347
		v5.761h-9.588v-5.276h1.611l-0.7-3.027h-4.702l-0.806,3.027h1.506V810.853z M327.973,792.897l-1.73,6.66h3.289L327.973,792.897z"/>
	<path fill="#999999" d="M344.574,810.853h-4.134v-7.715h4.134c0.493,2.099,1.422,3.148,2.787,3.148
		c0.986,0,1.479-0.519,1.479-1.557c0-0.542-0.172-0.992-0.515-1.349c-0.37-0.392-1.149-0.934-2.338-1.626
		c-1.497-0.888-2.597-1.655-3.302-2.301c-0.66-0.588-1.224-1.401-1.69-2.439c-0.467-1.026-0.7-2.162-0.7-3.408
		c0-2.237,0.555-3.985,1.664-5.242c1.101-1.257,2.457-1.886,4.068-1.886s2.976,0.6,4.094,1.799v-1.488h4.16v6.851h-4.107
		c-0.502-1.891-1.391-2.837-2.668-2.837c-0.898,0-1.347,0.502-1.347,1.505c0,0.484,0.128,0.848,0.383,1.09
		c0.247,0.254,1.043,0.813,2.391,1.678c1.805,1.176,3.011,2.036,3.619,2.578c0.308,0.265,0.622,0.637,0.944,1.115
		c0.321,0.479,0.588,0.972,0.799,1.48c0.484,1.13,0.726,2.353,0.726,3.667c0,2.018-0.572,3.725-1.717,5.121
		c-1.145,1.419-2.589,2.128-4.332,2.128c-1.62,0-3.086-0.629-4.398-1.886V810.853z"/>
	<path fill="#999999" d="M371.226,802.567h-1.875V798h8.215c0,2.63-0.141,4.584-0.423,5.865c-0.273,1.234-0.845,2.485-1.717,3.754
		c-0.854,1.257-1.889,2.174-3.104,2.751s-2.518,0.865-3.909,0.865c-2.069,0-3.949-0.45-5.639-1.349
		c-1.699-0.877-3.011-2.33-3.936-4.359c-0.933-1.995-1.4-4.233-1.4-6.712c0-3.748,0.942-6.77,2.826-9.065
		c1.867-2.295,4.156-3.443,6.868-3.443c2.263,0,4.037,0.721,5.322,2.162v-1.678h4.424v8.407h-4.424
		c-0.387-1.038-0.892-1.822-1.512-2.353c-0.622-0.531-1.345-0.796-2.173-0.796c-1.162,0-2.016,0.496-2.562,1.488
		c-0.537,0.992-0.806,2.814-0.806,5.467c0,2.641,0.282,4.434,0.845,5.38c0.572,0.957,1.404,1.436,2.496,1.436
		C370.399,805.819,371.226,804.735,371.226,802.567z"/>
	<path fill="#999999" d="M380.299,798.761c0-2.007,0.374-3.95,1.123-5.83c0.74-1.868,1.889-3.443,3.447-4.723
		c0.555-0.45,1.124-0.807,1.71-1.073c0.586-0.265,1.222-0.471,1.909-0.615c0.687-0.144,1.409-0.216,2.166-0.216
		c3.293,0,5.842,1.263,7.647,3.789c0.898,1.246,1.576,2.595,2.034,4.048s0.687,2.993,0.687,4.619c0,3.356-0.933,6.274-2.8,8.753
		s-4.389,3.719-7.568,3.719c-3.073,0-5.565-1.165-7.475-3.495C381.259,805.421,380.299,802.429,380.299,798.761z M388.277,798.761
		c0,2.676,0.198,4.481,0.594,5.415c0.379,0.946,0.973,1.419,1.783,1.419c0.801,0,1.4-0.456,1.796-1.367
		c0.396-0.923,0.594-2.745,0.594-5.467c0-2.641-0.194-4.44-0.581-5.397c-0.379-0.946-0.982-1.419-1.809-1.419
		c-0.792,0-1.387,0.456-1.783,1.367C388.475,794.223,388.277,796.039,388.277,798.761z"/>
	<path fill="#999999" d="M413.859,811.061h-5.785l-5.177-18.51h-1.268v-5.761h9.522v5.761h-1.374l2.166,10.362l2.747-10.362h-1.36
		v-5.761h8.004v5.761h-1.36l2.787,10.362l2.192-10.362h-1.321v-5.761h7.409v5.761h-1.268l-5.23,18.51h-5.706l-2.483-9.272
		L413.859,811.061z"/>
	<path fill="#999999" d="M436.945,810.853h-6.59v-6.297h6.59V810.853z"/>
	<path fill="#999999" d="M454.233,810.853h-10.394v-5.761h1.598v-12.542h-1.598v-5.761h11.226c2.201,0,3.905,0.167,5.111,0.502
		c1.189,0.346,2.122,1.032,2.8,2.059c0.678,1.049,1.017,2.272,1.017,3.667c0,1.361-0.321,2.445-0.964,3.252
		c-0.66,0.83-1.462,1.407-2.404,1.73c1.294,0.507,2.289,1.292,2.985,2.353c0.704,1.084,1.057,2.301,1.057,3.65
		c0,1.615-0.396,2.987-1.189,4.117c-0.792,1.119-1.88,1.851-3.262,2.197C458.851,810.675,456.857,810.853,454.233,810.853z
		 M452.542,792.066v4.394h1.572c1.065,0,1.765-0.202,2.1-0.605c0.317-0.404,0.475-0.934,0.475-1.592
		c0-0.565-0.145-1.073-0.436-1.522s-1.087-0.675-2.391-0.675H452.542z M452.542,800.837v4.74h1.598c1.021,0,1.757-0.173,2.206-0.519
		c0.44-0.346,0.66-0.957,0.66-1.834c0-0.819-0.198-1.424-0.594-1.816c-0.396-0.381-1.162-0.571-2.298-0.571H452.542z"/>
	<path fill="#999999" d="M467.546,792.551h-1.413v-5.761h9.403v5.761h-0.872v8.113c0,1.938,0.141,3.258,0.423,3.962
		c0.282,0.692,0.788,1.038,1.519,1.038c0.608,0,1.048-0.294,1.321-0.882c0.273-0.577,0.409-1.759,0.409-3.546v-8.684h-0.924v-5.761
		h6.907v5.761h-1.453v8.719c0,2.226-0.247,4.048-0.74,5.467c-0.493,1.407-1.312,2.508-2.457,3.304s-2.553,1.194-4.226,1.194
		c-1.347,0-2.54-0.213-3.579-0.64c-1.057-0.415-1.893-1.049-2.509-1.903c-0.616-0.842-1.07-1.863-1.36-3.062
		c-0.299-1.165-0.449-2.952-0.449-5.363V792.551z"/>
	<path fill="#999999" d="M500.379,810.853h-10.315v-5.761h1.585v-12.542h-2.113v4.377h-3.447V786.79h18.213v10.137h-3.447v-4.377
		h-2.1v12.542h1.624V810.853z"/>
	<path fill="#999999" d="M523.98,810.853h-11.16v-5.761h1.928v-12.542h-1.994v-5.761h18.094v7.923h-4.887v-2.162h-4.107v3.702h3.17
		v4.896h-3.17v3.944h2.126V810.853z"/>
	<path fill="#999999" d="M537.213,810.853h-7.277v-5.761h1.4l3.447-12.542h-1.479v-5.761h13.207v5.761h-1.479l3.513,12.542h1.347
		v5.761h-9.588v-5.276h1.611l-0.7-3.027h-4.702l-0.806,3.027h1.506V810.853z M538.943,792.897l-1.73,6.66h3.289L538.943,792.897z"/>
	<path fill="#999999" d="M558.477,810.853h-7.119v-5.761h1.413v-12.542h-1.453v-5.761h11.081l2.707,9.29l2.773-9.29h11.015v5.761
		h-1.44v12.542h1.479v5.761h-9.588v-5.761h1.466v-13.442l-5.547,19.202h-2.747l-5.494-19.029v13.269h1.453V810.853z"/>
	<path fill="#999999" d="M581.391,798.761c0-2.007,0.374-3.95,1.123-5.83c0.74-1.868,1.889-3.443,3.447-4.723
		c0.555-0.45,1.124-0.807,1.71-1.073s1.222-0.471,1.909-0.615s1.409-0.216,2.166-0.216c3.293,0,5.842,1.263,7.647,3.789
		c0.898,1.246,1.576,2.595,2.034,4.048s0.687,2.993,0.687,4.619c0,3.356-0.933,6.274-2.8,8.753c-1.867,2.48-4.389,3.719-7.568,3.719
		c-3.073,0-5.565-1.165-7.475-3.495C582.351,805.421,581.391,802.429,581.391,798.761z M589.368,798.761
		c0,2.676,0.198,4.481,0.594,5.415c0.379,0.946,0.973,1.419,1.783,1.419c0.801,0,1.4-0.456,1.796-1.367
		c0.396-0.923,0.594-2.745,0.594-5.467c0-2.641-0.194-4.44-0.581-5.397c-0.379-0.946-0.982-1.419-1.809-1.419
		c-0.792,0-1.387,0.456-1.783,1.367C589.566,794.223,589.368,796.039,589.368,798.761z"/>
	<path fill="#999999" d="M605.653,792.551h-1.413v-5.761h9.404v5.761h-0.872v8.113c0,1.938,0.141,3.258,0.423,3.962
		c0.282,0.692,0.788,1.038,1.519,1.038c0.607,0,1.048-0.294,1.321-0.882c0.273-0.577,0.409-1.759,0.409-3.546v-8.684h-0.924v-5.761
		h6.907v5.761h-1.453v8.719c0,2.226-0.247,4.048-0.74,5.467c-0.493,1.407-1.312,2.508-2.457,3.304
		c-1.145,0.796-2.553,1.194-4.226,1.194c-1.347,0-2.54-0.213-3.579-0.64c-1.057-0.415-1.893-1.049-2.509-1.903
		c-0.616-0.842-1.07-1.863-1.36-3.062c-0.299-1.165-0.449-2.952-0.449-5.363V792.551z"/>
	<path fill="#999999" d="M628.527,810.853h-4.134v-7.715h4.134c0.493,2.099,1.422,3.148,2.787,3.148
		c0.986,0,1.479-0.519,1.479-1.557c0-0.542-0.172-0.992-0.515-1.349c-0.37-0.392-1.149-0.934-2.338-1.626
		c-1.497-0.888-2.597-1.655-3.302-2.301c-0.66-0.588-1.224-1.401-1.69-2.439c-0.467-1.026-0.7-2.162-0.7-3.408
		c0-2.237,0.555-3.985,1.664-5.242c1.101-1.257,2.456-1.886,4.068-1.886s2.976,0.6,4.094,1.799v-1.488h4.16v6.851h-4.107
		c-0.502-1.891-1.391-2.837-2.668-2.837c-0.898,0-1.347,0.502-1.347,1.505c0,0.484,0.128,0.848,0.383,1.09
		c0.247,0.254,1.043,0.813,2.391,1.678c1.805,1.176,3.011,2.036,3.619,2.578c0.308,0.265,0.622,0.637,0.944,1.115
		c0.321,0.479,0.588,0.972,0.799,1.48c0.484,1.13,0.726,2.353,0.726,3.667c0,2.018-0.572,3.725-1.717,5.121
		c-1.145,1.419-2.589,2.128-4.332,2.128c-1.62,0-3.086-0.629-4.398-1.886V810.853z"/>
	<path fill="#999999" d="M112.61,853.368h-11.16v-5.761h1.928v-12.542h-1.994v-5.761h18.094v7.923h-4.887v-2.162h-4.107v3.702h3.17
		v4.896h-3.17v3.944h2.126V853.368z"/>
	<path fill="#999999" d="M125.844,853.368h-7.277v-5.761h1.4l3.447-12.542h-1.479v-5.761h13.207v5.761h-1.479l3.513,12.542h1.347
		v5.761h-9.588v-5.276h1.611l-0.7-3.027h-4.702l-0.806,3.027h1.506V853.368z M127.574,835.411l-1.73,6.66h3.289L127.574,835.411z"/>
	<path fill="#999999" d="M149.987,853.368h-9.985v-5.761h1.492v-12.542h-1.492v-5.761h9.985c0.898,0,1.73,0.02,2.496,0.06
		c0.766,0.04,1.422,0.098,1.968,0.173c0.546,0.075,1.048,0.176,1.506,0.303c1.285,0.358,2.329,1.136,3.13,2.335
		c0.81,1.222,1.215,2.664,1.215,4.325c0,1.246-0.247,2.376-0.74,3.391c-0.493,1.003-1.14,1.741-1.941,2.214l2.536,5.501h1.321v5.761
		h-6.617l-4.002-9.826H148.6v4.065h1.387V853.368z M148.6,834.581v4.584h0.792c1.039,0,1.743-0.04,2.113-0.121
		c0.396-0.081,0.731-0.311,1.004-0.692c0.273-0.357,0.409-0.848,0.409-1.47c0-0.623-0.136-1.119-0.409-1.488
		c-0.273-0.381-0.621-0.611-1.043-0.692c-0.405-0.081-1.145-0.121-2.219-0.121H148.6z"/>
	<path fill="#999999" d="M180.257,853.368h-10.394v-5.761h1.598v-12.542h-1.598v-5.761h11.226c2.201,0,3.905,0.167,5.111,0.502
		c1.189,0.346,2.122,1.032,2.8,2.059c0.678,1.049,1.017,2.272,1.017,3.667c0,1.361-0.321,2.445-0.964,3.252
		c-0.66,0.83-1.462,1.407-2.404,1.73c1.294,0.507,2.289,1.292,2.985,2.353c0.704,1.084,1.057,2.301,1.057,3.65
		c0,1.615-0.396,2.987-1.189,4.117c-0.792,1.119-1.88,1.851-3.262,2.197C184.875,853.189,182.881,853.368,180.257,853.368z
		 M178.567,834.581v4.394h1.572c1.065,0,1.765-0.202,2.1-0.605c0.317-0.404,0.475-0.934,0.475-1.592
		c0-0.565-0.145-1.073-0.436-1.522s-1.087-0.675-2.39-0.675H178.567z M178.567,843.352v4.74h1.598c1.021,0,1.757-0.173,2.206-0.519
		c0.44-0.346,0.66-0.957,0.66-1.834c0-0.819-0.198-1.424-0.594-1.816c-0.396-0.381-1.162-0.571-2.298-0.571H178.567z"/>
	<path fill="#999999" d="M210.528,853.368h-17.526v-5.761h1.426v-12.542h-1.453v-5.761h17.552v7.698h-4.821v-1.938h-4.173v3.702
		h3.632v4.896h-3.632v3.944h4.173v-1.938h4.821V853.368z"/>
	<path fill="#999999" d="M226.984,853.368h-10.037v-5.761h1.479v-3.823l-4.636-8.719h-1.255v-5.761h9.602v5.761h-1.096l1.955,4.913
		l2.364-4.913h-1.123v-5.761h7.066v5.761h-1.149l-4.622,8.719v3.823h1.453V853.368z"/>
	<path fill="#999999" d="M231.778,841.276c0-2.007,0.374-3.95,1.123-5.83c0.74-1.868,1.889-3.443,3.447-4.723
		c0.555-0.45,1.124-0.807,1.71-1.073c0.586-0.265,1.222-0.471,1.909-0.615c0.687-0.144,1.409-0.216,2.166-0.216
		c3.293,0,5.842,1.263,7.647,3.789c0.898,1.246,1.576,2.595,2.034,4.048c0.458,1.453,0.687,2.993,0.687,4.619
		c0,3.356-0.933,6.274-2.8,8.753s-4.389,3.719-7.568,3.719c-3.073,0-5.565-1.165-7.475-3.494
		C232.738,847.936,231.778,844.943,231.778,841.276z M239.755,841.276c0,2.676,0.198,4.481,0.594,5.415
		c0.379,0.946,0.973,1.419,1.783,1.419c0.801,0,1.4-0.456,1.796-1.367c0.396-0.923,0.594-2.745,0.594-5.467
		c0-2.641-0.194-4.44-0.581-5.397c-0.379-0.946-0.982-1.419-1.809-1.419c-0.792,0-1.387,0.456-1.783,1.367
		C239.954,836.738,239.755,838.554,239.755,841.276z"/>
	<path fill="#999999" d="M262.26,853.368h-7.541v-5.761h1.611v-12.542h-1.611v-5.761h8.703l6.683,12.577v-6.816h-1.492v-5.761h7.409
		v5.761h-1.598v18.614h-6.049l-7.739-14.549v8.477h1.624V853.368z"/>
	<path fill="#999999" d="M286.865,853.368h-8.545v-5.761h1.44v-12.542h-1.44v-5.761h8.796c2.007,0,3.645,0.161,4.913,0.484
		c1.277,0.323,2.479,0.986,3.606,1.989c1.118,1.015,1.999,2.387,2.641,4.117c0.317,0.83,0.559,1.718,0.726,2.664
		c0.167,0.946,0.251,1.938,0.251,2.975c0,2.087-0.339,3.99-1.017,5.709c-0.669,1.707-1.519,3.016-2.549,3.927
		c-1.004,0.911-2.104,1.505-3.302,1.782C291.197,853.23,289.357,853.368,286.865,853.368z M286.865,835.065v12.542h0.674
		c1.673,0,2.76-0.582,3.262-1.747c0.493-1.165,0.74-2.63,0.74-4.394c0-1.061-0.106-2.111-0.317-3.148
		c-0.22-1.038-0.608-1.84-1.162-2.405c-0.546-0.565-1.523-0.848-2.932-0.848H286.865z"/>
	<path fill="#999999" d="M318.787,853.368h-10.473v-5.761h1.691v-12.542h-1.691v-5.761h10.473v5.761h-1.677v12.542h1.677V853.368z"
		/>
	<path fill="#999999" d="M335.071,853.368h-10.315v-5.761h1.585v-12.542h-2.113v4.377h-3.447v-10.137h18.213v10.137h-3.447v-4.377
		h-2.1v12.542h1.624V853.368z"/>
	<path fill="#999999" d="M345.399,853.368h-4.134v-7.715h4.134c0.493,2.099,1.422,3.148,2.787,3.148
		c0.986,0,1.479-0.519,1.479-1.557c0-0.542-0.172-0.992-0.515-1.349c-0.37-0.392-1.149-0.934-2.338-1.626
		c-1.497-0.888-2.597-1.655-3.302-2.301c-0.66-0.588-1.224-1.401-1.691-2.439c-0.467-1.026-0.7-2.162-0.7-3.408
		c0-2.237,0.555-3.985,1.664-5.242c1.101-1.257,2.457-1.886,4.068-1.886s2.976,0.6,4.094,1.799v-1.488h4.16v6.851h-4.107
		c-0.502-1.891-1.391-2.837-2.668-2.837c-0.898,0-1.347,0.502-1.347,1.505c0,0.484,0.128,0.848,0.383,1.09
		c0.247,0.254,1.043,0.813,2.391,1.678c1.805,1.176,3.011,2.036,3.619,2.578c0.308,0.265,0.622,0.637,0.944,1.115
		c0.321,0.479,0.588,0.972,0.799,1.48c0.484,1.13,0.726,2.353,0.726,3.667c0,2.018-0.572,3.725-1.717,5.121
		c-1.145,1.419-2.589,2.128-4.332,2.128c-1.62,0-3.086-0.629-4.398-1.886V853.368z"/>
	<path fill="#999999" d="M374.587,853.368h-9.668v-5.761h1.387v-12.542h-1.413v-5.761h9.694v5.761h-1.175v3.667h4.253v-3.667h-1.189
		v-5.761h9.681v5.761h-1.387v12.542h1.387v5.761h-9.681v-5.761h1.189v-3.944h-4.253v3.944h1.175V853.368z"/>
	<path fill="#999999" d="M388.719,841.276c0-2.007,0.374-3.95,1.123-5.83c0.74-1.868,1.889-3.443,3.447-4.723
		c0.555-0.45,1.124-0.807,1.71-1.073s1.222-0.471,1.909-0.615s1.409-0.216,2.166-0.216c3.293,0,5.842,1.263,7.647,3.789
		c0.898,1.246,1.576,2.595,2.034,4.048c0.458,1.453,0.687,2.993,0.687,4.619c0,3.356-0.933,6.274-2.8,8.753
		s-4.389,3.719-7.568,3.719c-3.073,0-5.565-1.165-7.475-3.494C389.678,847.936,388.719,844.943,388.719,841.276z M396.696,841.276
		c0,2.676,0.198,4.481,0.594,5.415c0.379,0.946,0.973,1.419,1.783,1.419c0.801,0,1.4-0.456,1.796-1.367
		c0.396-0.923,0.594-2.745,0.594-5.467c0-2.641-0.194-4.44-0.581-5.397c-0.379-0.946-0.982-1.419-1.809-1.419
		c-0.792,0-1.387,0.456-1.783,1.367C396.894,836.738,396.696,838.554,396.696,841.276z"/>
	<path fill="#999999" d="M419.069,853.368h-7.119v-5.761h1.413v-12.542h-1.453v-5.761h11.081l2.707,9.29l2.773-9.29h11.015v5.761
		h-1.44v12.542h1.479v5.761h-9.588v-5.761h1.466v-13.442l-5.547,19.202h-2.747l-5.494-19.029v13.269h1.453V853.368z"/>
	<path fill="#999999" d="M459.39,853.368h-17.526v-5.761h1.426v-12.542h-1.453v-5.761h17.552v7.698h-4.821v-1.938h-4.173v3.702
		h3.632v4.896h-3.632v3.944h4.173v-1.938h4.821V853.368z"/>
	<path fill="#999999" d="M483.466,842.764l4.768,2.197c-0.405,2.572-1.334,4.677-2.787,6.314c-1.47,1.649-3.495,2.474-6.075,2.474
		c-3.522,0-6.128-1.205-7.819-3.616c-1.699-2.399-2.549-5.328-2.549-8.788c0-3.483,0.832-6.441,2.496-8.875
		c1.664-2.433,3.826-3.65,6.485-3.65c2.157,0,3.914,0.698,5.27,2.093v-1.609h4.411v8.788h-4.583
		c-0.238-1.096-0.638-1.961-1.202-2.595c-0.564-0.623-1.206-0.934-1.928-0.934c-1.99,0-2.985,2.243-2.985,6.729
		c0,4.498,1.03,6.747,3.09,6.747C481.864,848.04,483,846.281,483.466,842.764z"/>
	<path fill="#999999" d="M500.794,853.368h-10.473v-5.761h1.69v-12.542h-1.69v-5.761h10.473v5.761h-1.677v12.542h1.677V853.368z"/>
	<path fill="#999999" d="M517.079,853.368h-10.315v-5.761h1.585v-12.542h-2.113v4.377h-3.447v-10.137h18.213v10.137h-3.447v-4.377
		h-2.1v12.542h1.624V853.368z"/>
	<path fill="#999999" d="M536.969,853.368h-10.037v-5.761h1.479v-3.823l-4.636-8.719h-1.255v-5.761h9.602v5.761h-1.096l1.955,4.913
		l2.364-4.913h-1.123v-5.761h7.066v5.761h-1.149l-4.622,8.719v3.823h1.453V853.368z"/>
</g>
<linearGradient id="SVGID_2_" gradientUnits="userSpaceOnUse" x1="-42.097" y1="958.9799" x2="67.9702" y2="918.9188">
	<stop  offset="0" style="stop-color:#FFFFFF"/>
	<stop  offset="1" style="stop-color:#000000"/>
</linearGradient>
<path opacity="0.9" fill="url(#SVGID_2_)" d="M-4.303,786.79v276.028h112.205C83.152,940.209,43.599,842.397-4.303,786.79z"/>
<linearGradient id="SVGID_3_" gradientUnits="userSpaceOnUse" x1="527.0959" y1="197.3997" x2="698.3848" y2="135.0556">
	<stop  offset="0" style="stop-color:#FFFFFF"/>
	<stop  offset="1" style="stop-color:#000000"/>
</linearGradient>
<path fill="url(#SVGID_3_)" d="M639.675,395.866V-26.249H483.707C505.761,175.886,564.759,335.463,639.675,395.866z"/>
<g>
	<g>
		<path fill="none" stroke="#000000" stroke-width="2" stroke-miterlimit="10" d="M578.414,348.113"/>
	</g>
</g>
<g>
	<g>
		<path fill="none" stroke="#000000" stroke-width="2" stroke-miterlimit="10" d="M266.212,276.105"/>
	</g>
</g>
</svg>
