<?xml version="1.0" encoding="utf-8"?>
<!-- Generator: Adobe Illustrator 17.0.0, SVG Export Plug-In . SVG Version: 6.00 Build 0)  -->
<!DOCTYPE svg PUBLIC "-//W3C//DTD SVG 1.1//EN" "http://www.w3.org/Graphics/SVG/1.1/DTD/svg11.dtd">
<svg version="1.1" id="Layer_1" xmlns="http://www.w3.org/2000/svg" xmlns:xlink="http://www.w3.org/1999/xlink" x="0px" y="0px"
	 width="640px" height="960px" viewBox="0 0 640 960" enable-background="new 0 0 640 960" xml:space="preserve">
<path fill="#FECC0D" d="M640.487,0H-1.38v174.647h200.496c5.313,61.861,57.201,110.416,120.438,110.416
	s115.125-48.555,120.438-110.416h200.496V0H640.487z"/>
<path fill="#FF0000" stroke="#000000" stroke-width="5" stroke-miterlimit="10" d="M368.067,238.613h-97.331v-40.692h23.255V73.723
	h-22.285v26.988h-36.35v-67.68h167.536v67.68H366.54V73.723h-20.509v124.198h22.036L368.067,238.613L368.067,238.613z"/>
<g>
	<g>
		<path fill="none" stroke="#000000" stroke-width="2" stroke-miterlimit="10" d="M266.212,276.105"/>
	</g>
</g>
<path fill="none" stroke="#000000" stroke-width="3" stroke-miterlimit="10" d="M640.488,174.647H440.992
	c0,0-12.384,110.416-120.438,110.416S200.116,174.647,200.116,174.647H-1.38"/>
<line fill="#FECC0D" x1="-1.38" y1="0" x2="640.488" y2="0"/>
</svg>
